<?xml version="1.0" encoding="iso-8859-1"?>
<!-- Generator: Adobe Illustrator 19.0.0, SVG Export Plug-In . SVG Version: 6.00 Build 0)  -->
<svg version="1.1" id="Capa_1" xmlns="http://www.w3.org/2000/svg" xmlns:xlink="http://www.w3.org/1999/xlink" x="0px" y="0px"
	 viewBox="0 0 512 512" style="enable-background:new 0 0 512 512;" xml:space="preserve">
<path style="fill:#ED6F4A;" d="M492.609,205.133l-44.62-44.62H77.658l-58.437,45.907v93.831l4.183,6.678l-4.183,8.775v88.188
	l8.155,8.095l-8.155,7.358V512h473.39v-92.658l-6.128-4.519l6.128-10.933v-88.188l-6.128-6.944l6.128-8.508v-95.117H492.609z
	 M97.15,512l6.837-6.944l8.615,6.944H97.15z M248.189,512l7.811-5.81l7.642,5.81H248.189z M399.228,512l8.372-6.944l7.08,6.944
	H399.228z"/>
<path style="fill:#D36341;" d="M77.658,160.513l-58.437,45.907v36.231l8.339,8.128c10.183,9.926,23.614,15.391,37.818,15.39
	c14.513,0,28.25-5.79,38.32-15.845c10.153,10.719,24.348,16.924,39.374,16.924c13.239,0,25.994-4.84,35.917-13.628l17.655-15.635
	l22.559,16.396c9.715,8.048,21.921,12.458,34.576,12.458s24.861-4.41,34.576-12.458l22.559-16.396l17.655,15.635
	c9.925,8.79,22.681,13.628,35.92,13.628c14.947-0.001,29.072-6.143,39.214-16.76c10.143,10.619,24.269,16.76,39.218,16.76
	c13.239,0,25.994-4.84,35.918-13.628l13.77-12.195v-36.292l-44.62-44.62H77.658V160.513z"/>
<path style="fill:#EEEEEC;" d="M492.609,315.702v-15.453H414.68V190.878h-15.453v109.371H263.641V190.878h-15.453v109.371H112.602
	V190.878H97.15v109.371H19.22v15.453h153.492v88.188H19.22v15.453h77.929V512h15.453v-92.658h135.586V512h15.453v-92.658h135.586
	V512h15.453v-92.658h77.929V403.89h-153.49v-88.188H492.609z M323.666,403.89H188.164v-88.188h135.502V403.89z"/>
<g>
	<circle style="fill:#D4D3D3;" cx="255.999" cy="14.993" r="14.993"/>
	<circle style="fill:#D4D3D3;" cx="157.185" cy="14.993" r="14.993"/>
	<circle style="fill:#D4D3D3;" cx="58.376" cy="14.993" r="14.993"/>
	<circle style="fill:#D4D3D3;" cx="354.814" cy="14.993" r="14.993"/>
	<circle style="fill:#D4D3D3;" cx="453.619" cy="14.993" r="14.993"/>
	<circle style="fill:#D4D3D3;" cx="305.407" cy="78.026" r="14.993"/>
	<circle style="fill:#D4D3D3;" cx="206.592" cy="78.026" r="14.993"/>
	<circle style="fill:#D4D3D3;" cx="107.777" cy="78.026" r="14.993"/>
	<circle style="fill:#D4D3D3;" cx="404.212" cy="78.026" r="14.993"/>
</g>
<g>
	<path style="fill:#B0BBC4;" d="M248.189,266.539c1.85,0.192,3.714,0.3,5.59,0.3c3.332,0,6.63-0.314,9.863-0.912v-75.05h-15.453
		V266.539z"/>
	<path style="fill:#B0BBC4;" d="M97.15,255.883c2.315-1.673,4.51-3.524,6.548-5.559c2.7,2.851,5.694,5.371,8.905,7.551v-66.997
		H97.15V255.883z"/>
	<path style="fill:#B0BBC4;" d="M399.228,254.655c1.561-1.302,3.061-2.687,4.475-4.167c3.277,3.432,6.975,6.386,10.978,8.827
		v-68.435h-15.453V254.655z"/>
</g>
<path style="fill:#EEEEEC;" d="M511.556,183.625c0,10.917-8.153,19.876-18.947,21.508c-4.311,0.652-8.477,2.517-11.953,5.595
	l-22.308,19.755c-10.494,9.293-26.759,7.286-34.679-4.279l-0.739-1.079c-9.256-13.517-29.201-13.517-38.457,0l-0.739,1.079
	c-7.92,11.566-24.185,13.573-34.679,4.279l-22.308-19.755c-8.819-7.811-22.081-7.811-30.9,0l-26.621,19.349
	c-8.819,7.811-22.081,7.811-30.9,0l-26.621-19.349c-8.819-7.811-22.081-7.811-30.9,0l-22.308,19.755
	c-10.494,9.293-26.759,7.286-34.679-4.279l-0.739-1.079c-9.256-13.517-29.2-13.517-38.457,0l0,0
	c-8.173,11.937-25.134,13.619-35.494,3.522l-16.156-15.747c-3.879-3.781-8.746-5.941-13.754-6.481
	c-10.79-1.163-18.778-10.635-18.778-21.486v-40.894c0-12.704,10.299-23.003,23.003-23.003h465.109
	c12.704,0,23.003,10.299,23.003,23.003v39.587H511.556z"/>
<g>
</g>
<g>
</g>
<g>
</g>
<g>
</g>
<g>
</g>
<g>
</g>
<g>
</g>
<g>
</g>
<g>
</g>
<g>
</g>
<g>
</g>
<g>
</g>
<g>
</g>
<g>
</g>
<g>
</g>
</svg>
