<?xml version="1.0" encoding="iso-8859-1"?>
<!-- Generator: Adobe Illustrator 19.0.0, SVG Export Plug-In . SVG Version: 6.00 Build 0)  -->
<svg version="1.1" id="Capa_1" xmlns="http://www.w3.org/2000/svg" xmlns:xlink="http://www.w3.org/1999/xlink" x="0px" y="0px"
	 viewBox="0 0 512 512" style="enable-background:new 0 0 512 512;" xml:space="preserve">
<polygon style="fill:#B26147;" points="290.365,101.11 281.199,138.545 349.089,391.882 383.418,383.641 315.528,130.303 "/>
<g>
	
		<rect x="272.727" y="66.836" transform="matrix(-0.9724 0.2335 -0.2335 -0.9724 596.3388 131.5967)" style="fill:#8EA3AD;" width="35.306" height="68.52"/>
	<path style="fill:#8EA3AD;" d="M415.951,384.221c1.802-23.867,1.77-44.666-1.403-58.406c-3.006-13.016-13.017-22.468-26.361-21.837
		c-9.76,0.463-23.057,2.131-40.529,6.325c-17.472,4.195-30.078,8.745-38.983,12.765c-12.176,5.495-16.805,18.463-13.574,31.425
		c3.411,13.684,12.825,32.229,25.267,52.676L415.951,384.221z"/>
</g>
<path style="fill:#7A8B93;" d="M340.97,394.807c-12.441-20.448-21.855-38.993-25.267-52.676c-2.126-8.529-0.827-17.045,3.763-23.449
	c-4.083,1.502-7.671,2.977-10.793,4.385c-12.176,5.495-16.805,18.463-13.574,31.425c3.411,13.684,12.825,32.229,25.267,52.676
	l95.584-22.948c0.193-2.553,0.36-5.061,0.509-7.538L340.97,394.807z"/>
<circle style="fill:#ACD7F2;" cx="125.558" cy="324.61" r="47.123"/>
<circle style="fill:#CCE5F2;" cx="164.118" cy="375.594" r="47.123"/>
<circle style="fill:#DEEEF9;" cx="87.225" cy="371.731" r="47.123"/>
<path style="fill:#CCE5F2;" d="M288.77,403.001c0,0-106.247-34.297-288.77-34.297v142.807h99.648l177.808-62.906L288.77,403.001z"/>
<path style="fill:#DEEEF9;" d="M99.648,511.511C182.925,448.128,297.416,368.704,512,368.704v142.807L99.648,511.511L99.648,511.511
	z"/>
<rect x="269.271" y="67.245" transform="matrix(-0.9724 0.2335 -0.2335 -0.9724 586.1631 104.0225)" style="fill:#7A8B93;" width="35.306" height="38.923"/>
<path style="fill:#ADBDC4;" d="M347.514,48.574l-8.479-35.319c-2.147-8.941-11.135-14.449-20.076-12.302l-99.542,23.899
	c-8.941,2.146-14.449,11.135-12.302,20.076l8.479,35.319c2.147,8.941,11.135,14.448,20.076,12.302l99.542-23.899
	C344.153,66.504,349.661,57.515,347.514,48.574z M311.812,48.98l-64.224,15.419c-5.489,1.318-11.007-2.063-12.325-7.552
	c-1.318-5.489,2.063-11.007,7.552-12.325l64.224-15.42c5.489-1.318,11.008,2.063,12.325,7.553
	C320.682,42.145,317.301,47.663,311.812,48.98z"/>
<g>
</g>
<g>
</g>
<g>
</g>
<g>
</g>
<g>
</g>
<g>
</g>
<g>
</g>
<g>
</g>
<g>
</g>
<g>
</g>
<g>
</g>
<g>
</g>
<g>
</g>
<g>
</g>
<g>
</g>
</svg>
