<?xml version="1.0" encoding="iso-8859-1"?>
<!-- Generator: Adobe Illustrator 19.0.0, SVG Export Plug-In . SVG Version: 6.00 Build 0)  -->
<svg version="1.1" id="Layer_1" xmlns="http://www.w3.org/2000/svg" xmlns:xlink="http://www.w3.org/1999/xlink" x="0px" y="0px"
	 viewBox="0 0 512 512" style="enable-background:new 0 0 512 512;" xml:space="preserve">
<path style="fill:#D8D8D8;" d="M407.332,234.207c-1.534,0-3.056,0.039-4.569,0.121c-2.375,0.155-4.789-0.737-6.547-2.405
	c-1.763-1.668-2.759-3.987-2.759-6.409c0-68.431-57.138-123.996-127.366-123.996c-55.767,0-104.56,34.694-121.423,86.336
	c-1.28,3.931-5.138,6.47-9.259,6.043c-3.474-0.341-7-0.517-10.56-0.517c-59.108,0-107.194,48.698-107.194,108.552
	s48.086,108.552,107.194,108.552c1.569,0,3.134-0.034,4.69-0.104c0.616-0.013,1.207,0.009,1.789,0.104h279.522
	c0.336-0.06,0.681-0.099,1.026-0.116c46.246-2.409,82.47-41.073,82.47-88.022C494.345,273.746,455.31,234.207,407.332,234.207z
	 M273.655,366.345H256V348.69h17.655V366.345z M273.655,304.588v35.278H256v-52.28h9.172v-0.004
	c24.526,0,44.478-19.953,44.478-44.478s-19.953-44.483-44.478-44.483s-44.483,19.957-44.483,44.483h-17.655
	c0-34.263,27.875-62.138,62.138-62.138c34.259,0,62.134,27.875,62.134,62.138C327.306,274.477,303.905,300.429,273.655,304.588z"/>
<g>
	<path style="fill:#314E55;" d="M410.836,216.612c-4.655-73.97-67.797-132.75-144.746-132.75
		c-61.052,0-114.797,36.677-135.897,91.974c-1.78-0.073-3.565-0.112-5.345-0.112C56.009,175.724,0,232.34,0,301.931
		s56.009,126.207,124.849,126.207c1.332,0,2.655-0.022,3.978-0.065c0.349,0.043,0.707,0.065,1.065,0.065h282.483
		c0.672,0,1.336-0.082,1.974-0.233C469.233,424.228,512,378.164,512,322.345C512,265.194,466.935,218.487,410.836,216.612z
		 M411.875,410.366c-0.345,0.017-0.69,0.056-1.026,0.116H131.328c-0.582-0.095-1.172-0.116-1.789-0.104
		c-1.556,0.069-3.121,0.104-4.69,0.104c-59.108,0-107.194-48.698-107.194-108.552s48.086-108.552,107.194-108.552
		c3.56,0,7.086,0.177,10.56,0.517c4.121,0.427,7.978-2.112,9.259-6.043c16.862-51.642,65.655-86.336,121.422-86.336
		c70.229,0,127.366,55.565,127.366,123.996c0,2.423,0.996,4.741,2.759,6.409c1.759,1.668,4.172,2.56,6.547,2.405
		c1.513-0.082,3.034-0.121,4.569-0.121c47.978,0,87.013,39.539,87.013,88.138C494.345,369.293,458.121,407.957,411.875,410.366z"/>
	<path style="fill:#314E55;" d="M265.172,180.965c-34.263,0-62.138,27.875-62.138,62.138h17.655
		c0-24.526,19.957-44.483,44.483-44.483s44.478,19.957,44.478,44.483s-19.953,44.478-44.478,44.478v0.004H256v52.28h17.655v-35.278
		c30.249-4.16,53.651-30.111,53.651-61.485C327.306,208.84,299.431,180.965,265.172,180.965z"/>
	<rect x="256" y="348.69" style="fill:#314E55;" width="17.655" height="17.655"/>
</g>
<g>
</g>
<g>
</g>
<g>
</g>
<g>
</g>
<g>
</g>
<g>
</g>
<g>
</g>
<g>
</g>
<g>
</g>
<g>
</g>
<g>
</g>
<g>
</g>
<g>
</g>
<g>
</g>
<g>
</g>
</svg>
