<?xml version="1.0" encoding="iso-8859-1"?>
<!-- Generator: Adobe Illustrator 19.0.0, SVG Export Plug-In . SVG Version: 6.00 Build 0)  -->
<svg version="1.1" id="Layer_1" xmlns="http://www.w3.org/2000/svg" xmlns:xlink="http://www.w3.org/1999/xlink" x="0px" y="0px"
	 viewBox="0 0 512 512" style="enable-background:new 0 0 512 512;" xml:space="preserve">
<path style="fill:#81A4E3;" d="M406.588,180.706c-1.51,0-3,0.039-4.49,0.118c-2.794,0.098-5.441-0.853-7.441-2.745
	c-2-1.892-3.128-4.529-3.128-7.284c0-66.559-56.294-120.598-125.49-120.598c-54.961,0-103.049,33.765-119.647,84.01
	c-1.47,4.461-5.775,7.265-10.5,6.843c-3.422-0.334-6.892-0.5-10.402-0.5c-58.128,0-105.412,47.284-105.412,105.412
	S67.363,351.373,125.49,351.373c1.559,0,3.098-0.039,4.637-0.098c0.627-0.059,1.274,0.01,1.882,0.098h277.98
	c0.353-0.059,0.706-0.098,1.059-0.118c45.353-2.324,80.872-39.755,80.872-85.216C491.922,218.99,453.637,180.706,406.588,180.706z"
	/>
<g>
	<path style="fill:#314E55;" d="M411.245,160.726c-5.294-72.882-68.402-130.608-145.206-130.608
		c-60.941,0-114.628,36.029-136.049,90.431c-1.49-0.049-2.99-0.078-4.5-0.078C56.294,120.471,0,176.765,0,245.961
		s56.294,125.49,125.49,125.49c1.314,0,2.618-0.02,3.912-0.059c0.363,0.039,0.735,0.059,1.108,0.059h281.098
		c0.726,0,1.441-0.078,2.137-0.235C468.98,367.52,512,321.637,512,266.039C512,209.48,467.216,163.176,411.245,160.726z
		 M411.049,351.255c-0.353,0.02-0.706,0.059-1.059,0.118H132.01c-0.608-0.088-1.255-0.157-1.882-0.098
		c-1.539,0.059-3.079,0.098-4.637,0.098c-58.128,0-105.412-47.284-105.412-105.412S67.363,140.549,125.49,140.549
		c3.51,0,6.98,0.167,10.402,0.5c4.725,0.422,9.03-2.382,10.5-6.843c16.598-50.245,64.686-84.01,119.647-84.01
		c69.196,0,125.49,54.039,125.49,120.598c0,2.755,1.127,5.392,3.127,7.284c2,1.892,4.647,2.843,7.441,2.745
		c1.49-0.079,2.98-0.118,4.49-0.118c47.049,0,85.333,38.284,85.333,85.333C491.922,311.5,456.402,348.931,411.049,351.255z"/>
	<path style="fill:#314E55;" d="M187.804,414.549c-3.922-3.922-10.275-3.922-14.196,0l-18,18l-18-18
		c-3.922-3.922-10.275-3.922-14.196,0s-3.922,10.275,0,14.196l18,18l-18,18c-3.922,3.922-3.922,10.275,0,14.196
		c1.961,1.961,4.529,2.941,7.098,2.941c2.569,0,5.137-0.98,7.098-2.941l18-18l18,18c1.961,1.961,4.529,2.941,7.098,2.941
		s5.137-0.98,7.098-2.941c3.922-3.922,3.922-10.275,0-14.196l-18-18l18-18C191.725,424.823,191.725,418.471,187.804,414.549z"/>
	<path style="fill:#314E55;" d="M288.196,414.549c-3.922-3.922-10.275-3.922-14.196,0l-18,18l-18-18
		c-3.922-3.922-10.275-3.922-14.196,0c-3.921,3.922-3.922,10.275,0,14.196l18,18l-18,18c-3.922,3.922-3.922,10.275,0,14.196
		c1.961,1.961,4.529,2.941,7.098,2.941c2.569,0,5.137-0.98,7.098-2.941l18-18l18,18c1.961,1.961,4.529,2.941,7.098,2.941
		s5.137-0.98,7.098-2.941c3.922-3.922,3.922-10.275,0-14.196l-18-18l18-18C292.118,424.823,292.118,418.471,288.196,414.549z"/>
	<path style="fill:#314E55;" d="M388.588,414.549c-3.922-3.922-10.275-3.922-14.196,0l-18,18l-18-18
		c-3.922-3.922-10.275-3.922-14.196,0c-3.921,3.922-3.922,10.275,0,14.196l18,18l-18,18c-3.922,3.922-3.922,10.275,0,14.196
		c1.961,1.961,4.529,2.941,7.098,2.941s5.137-0.98,7.098-2.941l18-18l18,18c1.961,1.961,4.529,2.941,7.098,2.941
		s5.137-0.98,7.098-2.941c3.922-3.922,3.922-10.275,0-14.196l-18-18l18-18C392.51,424.823,392.51,418.471,388.588,414.549z"/>
</g>
<g>
</g>
<g>
</g>
<g>
</g>
<g>
</g>
<g>
</g>
<g>
</g>
<g>
</g>
<g>
</g>
<g>
</g>
<g>
</g>
<g>
</g>
<g>
</g>
<g>
</g>
<g>
</g>
<g>
</g>
</svg>
