<?xml version="1.0" encoding="iso-8859-1"?>
<!-- Generator: Adobe Illustrator 19.0.0, SVG Export Plug-In . SVG Version: 6.00 Build 0)  -->
<svg version="1.1" id="Layer_1" xmlns="http://www.w3.org/2000/svg" xmlns:xlink="http://www.w3.org/1999/xlink" x="0px" y="0px"
	 viewBox="0 0 512 512" style="enable-background:new 0 0 512 512;" xml:space="preserve">
<path style="fill:#73C9C9;" d="M406.588,168.503c-1.52,0-3.02,0.039-4.515,0.113c-2.814,0.152-5.431-0.853-7.421-2.75
	c-1.995-1.897-3.123-4.524-3.123-7.274c0-66.554-56.294-120.598-125.49-120.598c-54.966,0-103.044,33.765-119.642,84.015
	c-1.476,4.466-5.858,7.368-10.515,6.843c-3.417-0.333-6.887-0.505-10.392-0.505c-58.123,0-105.412,47.289-105.412,105.412
	S67.368,339.169,125.49,339.169c1.544,0,3.083-0.029,4.608-0.098c0.627-0.025,1.279-0.005,1.912,0.098h277.985
	c0.348-0.059,0.706-0.098,1.064-0.113c45.343-2.338,80.863-39.77,80.863-85.221C491.922,206.782,453.642,168.503,406.588,168.503z"
	/>
<g>
	<path style="fill:#314E55;" d="M411.25,148.527c-5.299-72.882-68.402-130.613-145.211-130.613
		c-60.936,0-114.628,36.029-136.044,90.431c-1.495-0.054-2.995-0.078-4.505-0.078C56.294,108.267,0,164.561,0,233.757
		s56.294,125.49,125.49,125.49c1.314,0,2.622-0.02,3.931-0.059c0.358,0.039,0.721,0.059,1.088,0.059h281.098
		c0.726,0,1.441-0.083,2.132-0.24c55.235-3.696,98.26-49.578,98.26-105.172C512,197.272,467.221,150.973,411.25,148.527z
		 M411.059,339.057c-0.358,0.015-0.716,0.054-1.064,0.113H132.01c-0.632-0.103-1.284-0.122-1.912-0.098
		c-1.525,0.069-3.064,0.098-4.608,0.098c-58.123,0-105.412-47.289-105.412-105.412S67.368,128.346,125.49,128.346
		c3.505,0,6.975,0.172,10.392,0.505c4.657,0.525,9.039-2.378,10.515-6.843c16.598-50.25,64.676-84.015,119.642-84.015
		c69.196,0,125.49,54.044,125.49,120.598c0,2.75,1.127,5.378,3.122,7.274c1.99,1.897,4.608,2.902,7.422,2.75
		c1.495-0.074,2.995-0.113,4.515-0.113c47.054,0,85.333,38.28,85.333,85.333C491.922,299.287,456.402,336.718,411.059,339.057z"/>
	<path style="fill:#314E55;" d="M162.99,384.875c-4.824-2.784-10.941-1.127-13.716,3.676l-52.235,90.475
		c-2.77,4.804-1.127,10.941,3.676,13.716c1.583,0.912,3.309,1.343,5.01,1.343c3.471,0,6.843-1.799,8.706-5.02l52.235-90.475
		C169.436,393.787,167.794,387.65,162.99,384.875z"/>
	<path style="fill:#314E55;" d="M223.225,384.875c-4.819-2.784-10.946-1.127-13.716,3.676l-52.235,90.475
		c-2.77,4.804-1.127,10.941,3.676,13.716c1.583,0.912,3.309,1.343,5.01,1.343c3.471,0,6.843-1.799,8.706-5.02l52.235-90.475
		C229.672,393.787,228.029,387.65,223.225,384.875z"/>
	<path style="fill:#314E55;" d="M283.461,384.875c-4.828-2.784-10.946-1.127-13.716,3.676l-52.235,90.475
		c-2.77,4.804-1.127,10.941,3.676,13.716c1.583,0.912,3.309,1.343,5.01,1.343c3.471,0,6.843-1.799,8.706-5.02l52.235-90.475
		C289.907,393.787,288.265,387.65,283.461,384.875z"/>
	<path style="fill:#314E55;" d="M361.412,449.601c-22.142,0-40.157-18.015-40.157-40.157h-20.078
		c0,33.216,27.02,60.235,60.235,60.235s60.235-27.02,60.235-60.235h-20.078C401.569,431.586,383.554,449.601,361.412,449.601z"/>
</g>
<g>
</g>
<g>
</g>
<g>
</g>
<g>
</g>
<g>
</g>
<g>
</g>
<g>
</g>
<g>
</g>
<g>
</g>
<g>
</g>
<g>
</g>
<g>
</g>
<g>
</g>
<g>
</g>
<g>
</g>
</svg>
