<?xml version="1.0" encoding="iso-8859-1"?>
<!-- Generator: Adobe Illustrator 19.0.0, SVG Export Plug-In . SVG Version: 6.00 Build 0)  -->
<svg version="1.1" id="Layer_1" xmlns="http://www.w3.org/2000/svg" xmlns:xlink="http://www.w3.org/1999/xlink" x="0px" y="0px"
	 viewBox="0 0 512 512" style="enable-background:new 0 0 512 512;" xml:space="preserve">
<g>
	<circle style="fill:#FFFFFF;" cx="100.174" cy="116.86" r="11.13"/>
	<circle style="fill:#FFFFFF;" cx="178.087" cy="395.121" r="11.13"/>
	<circle style="fill:#FFFFFF;" cx="411.826" cy="228.165" r="11.13"/>
</g>
<g>
	<path style="fill:#314E55;" d="M274.668,364.682c-4.533-4.185-11.565-3.88-15.728,0.652l-17.499,19.014
		c-0.59-0.097-1.123-0.351-1.741-0.351h-30.274c-0.387-1.086-0.801-2.145-1.295-3.176l21.389-21.389
		c0.686-0.686,1.073-1.525,1.543-2.323l24.359,1.019c0.163,0.011,0.321,0.011,0.473,0.011c5.935,0,10.864-4.685,11.114-10.663
		c0.255-6.141-4.511-11.326-10.652-11.587l-19.136-0.804l-0.794-19.12c-0.25-6.141-5.299-11.141-11.581-10.663
		c-6.141,0.25-10.913,5.435-10.658,11.576l1.071,25.833c-0.485,0.348-1.042,0.545-1.479,0.982l-21.389,21.389
		c-1.031-0.494-2.09-0.908-3.176-1.295v-30.268c0-0.969-0.319-1.836-0.551-2.732l17.948-16.518
		c4.522-4.163,4.815-11.196,0.652-15.717c-4.158-4.533-11.196-4.837-15.728-0.652l-14.087,12.956L163.364,297.9
		c-4.533-4.185-11.571-3.88-15.728,0.652c-4.163,4.522-3.869,11.554,0.652,15.717l19.02,17.505
		c-0.097,0.591-0.352,1.126-0.352,1.745v30.268c-1.086,0.387-2.145,0.801-3.176,1.295l-21.389-21.389
		c-0.685-0.685-1.523-1.072-2.321-1.542l1.011-24.371c0.255-6.141-4.516-11.326-10.658-11.576
		c-6.462-0.5-11.332,4.522-11.581,10.663l-0.794,19.12l-19.136,0.804c-6.141,0.261-10.908,5.446-10.652,11.587
		c0.25,5.978,5.179,10.663,11.114,10.663c0.152,0,0.31,0,0.473-0.011l25.82-1.08c0.349,0.486,0.547,1.045,0.984,1.482l21.389,21.389
		c-0.494,1.031-0.908,2.09-1.295,3.176h-30.273c-0.97,0-1.838,0.319-2.734,0.551l-16.505-17.943
		c-4.168-4.533-11.201-4.826-15.723-0.663c-4.527,4.163-4.821,11.207-0.658,15.728l12.962,14.098l-12.962,14.087
		c-4.163,4.522-3.869,11.565,0.652,15.717c2.141,1.978,4.842,2.946,7.533,2.946c3.005,0,6-1.207,8.196-3.598l17.499-19.014
		c0.59,0.097,1.122,0.351,1.74,0.351h30.274c0.387,1.086,0.8,2.145,1.294,3.176l-21.389,21.389
		c-0.686,0.686-1.073,1.525-1.543,2.323l-24.359-1.019c-6.571-0.554-11.332,4.511-11.587,10.652s4.511,11.326,10.652,11.587
		l19.136,0.804l0.794,19.12c0.245,5.989,5.179,10.674,11.114,10.674c0.152,0,0.31,0,0.467-0.011
		c6.141-0.25,10.913-5.435,10.658-11.576l-1.071-25.833c0.485-0.348,1.042-0.545,1.479-0.982l21.389-21.389
		c1.031,0.494,2.09,0.907,3.176,1.294v30.269c0,0.969,0.319,1.836,0.552,2.732l-17.948,16.518
		c-4.522,4.163-4.815,11.196-0.652,15.717c4.163,4.533,11.19,4.848,15.728,0.652l14.087-12.956l14.087,12.956
		c2.141,1.978,4.842,2.946,7.533,2.946c3.005,0,6-1.207,8.196-3.598c4.163-4.522,3.869-11.554-0.652-15.717l-19.02-17.505
		c0.097-0.592,0.352-1.126,0.352-1.745v-30.268c1.086-0.387,2.145-0.801,3.176-1.295l21.389,21.389
		c0.685,0.685,1.523,1.072,2.321,1.542l-1.011,24.371c-0.255,6.141,4.516,11.326,10.658,11.576c0.158,0.011,0.315,0.011,0.467,0.011
		c5.935,0,10.869-4.685,11.114-10.674l0.794-19.12l19.136-0.804c6.141-0.261,10.908-5.446,10.652-11.587
		c-0.255-6.13-5.043-11.185-11.587-10.652l-25.82,1.08c-0.349-0.486-0.547-1.045-0.984-1.482l-21.389-21.389
		c0.494-1.031,0.908-2.09,1.295-3.176h30.274c0.97,0,1.838-0.319,2.734-0.551l16.505,17.943c2.196,2.391,5.19,3.598,8.196,3.598
		c2.69,0,5.391-0.967,7.527-2.935c4.527-4.163,4.821-11.206,0.658-15.728l-12.962-14.098L275.32,380.4
		C279.484,375.878,279.19,368.835,274.668,364.682z M166.956,395.128c0-6.141,4.994-11.13,11.13-11.13
		c6.136,0,11.13,4.989,11.13,11.13c0,6.141-4.994,11.13-11.13,11.13C171.951,406.259,166.956,401.269,166.956,395.128z"/>
	<path style="fill:#314E55;" d="M496.098,227.53l12.962-14.087c4.163-4.522,3.869-11.565-0.652-15.717
		c-4.533-4.185-11.565-3.88-15.728,0.652l-17.499,19.014c-0.59-0.097-1.123-0.351-1.741-0.351h-30.274
		c-0.387-1.086-0.801-2.145-1.295-3.176l21.389-21.389c0.686-0.686,1.073-1.525,1.543-2.323l24.359,1.019
		c0.163,0.011,0.321,0.011,0.473,0.011c5.935,0,10.864-4.685,11.114-10.663c0.255-6.141-4.511-11.326-10.652-11.587l-19.136-0.804
		l-0.794-19.12c-0.255-6.141-5.342-11.141-11.581-10.663c-6.141,0.25-10.913,5.435-10.658,11.576L449,175.755
		c-0.485,0.348-1.042,0.545-1.479,0.982l-21.389,21.389c-1.031-0.494-2.09-0.908-3.176-1.295v-30.269
		c0-0.969-0.319-1.836-0.551-2.732l17.948-16.518c4.522-4.163,4.815-11.196,0.652-15.717c-4.163-4.522-11.196-4.837-15.728-0.652
		L411.19,143.9l-14.087-12.956c-4.527-4.185-11.571-3.869-15.728,0.652c-4.163,4.522-3.869,11.554,0.652,15.717l19.02,17.505
		c-0.097,0.591-0.352,1.126-0.352,1.745v30.268c-1.086,0.387-2.145,0.801-3.176,1.295l-21.389-21.389
		c-0.685-0.685-1.523-1.072-2.321-1.542l1.011-24.371c0.255-6.141-4.516-11.326-10.658-11.576
		c-6.288-0.5-11.337,4.522-11.582,10.663l-0.794,19.12l-19.136,0.804c-6.141,0.261-10.908,5.446-10.652,11.587
		c0.25,5.978,5.179,10.663,11.114,10.663c0.152,0,0.31,0,0.473-0.011l25.82-1.08c0.349,0.486,0.547,1.045,0.985,1.482l21.389,21.389
		c-0.494,1.031-0.908,2.09-1.295,3.176h-30.274c-0.97,0-1.838,0.319-2.734,0.551l-16.505-17.943
		c-4.168-4.533-11.201-4.837-15.723-0.663c-4.527,4.163-4.821,11.206-0.658,15.728l12.962,14.098L314.592,242.9
		c-4.163,4.522-3.87,11.565,0.652,15.717c2.141,1.978,4.842,2.946,7.533,2.946c3.005,0,6-1.207,8.196-3.598l17.499-19.014
		c0.59,0.097,1.122,0.351,1.74,0.351h30.274c0.387,1.086,0.8,2.145,1.294,3.176l-21.389,21.389
		c-0.686,0.686-1.073,1.525-1.543,2.323l-24.359-1.019c-6.614-0.554-11.332,4.511-11.587,10.652
		c-0.255,6.141,4.511,11.326,10.652,11.587l19.136,0.804l0.794,19.12c0.245,5.989,5.179,10.674,11.114,10.674
		c0.152,0,0.31,0,0.467-0.011c6.141-0.25,10.913-5.435,10.658-11.576l-1.071-25.833c0.485-0.348,1.042-0.545,1.479-0.982
		l21.389-21.389c1.031,0.494,2.09,0.907,3.176,1.294v30.269c0,0.969,0.319,1.836,0.552,2.732l-17.948,16.518
		c-4.522,4.163-4.815,11.196-0.652,15.717c4.163,4.533,11.196,4.848,15.728,0.652l14.087-12.956l14.087,12.956
		c2.141,1.978,4.842,2.946,7.533,2.946c3.005,0,6-1.207,8.196-3.598c4.163-4.522,3.869-11.554-0.652-15.717l-19.02-17.505
		c0.097-0.592,0.352-1.126,0.352-1.745v-30.268c1.086-0.387,2.145-0.801,3.176-1.295l21.389,21.389
		c0.685,0.685,1.523,1.072,2.321,1.542l-1.011,24.371c-0.255,6.141,4.516,11.326,10.658,11.576c0.157,0.011,0.315,0.011,0.467,0.011
		c5.935,0,10.869-4.685,11.114-10.674l0.794-19.12L491,286.509c6.141-0.261,10.908-5.446,10.652-11.587
		c-0.255-6.13-5.087-11.185-11.587-10.652l-25.82,1.08c-0.349-0.486-0.547-1.045-0.984-1.482l-21.389-21.389
		c0.494-1.031,0.908-2.09,1.295-3.176h30.274c0.97,0,1.838-0.319,2.734-0.552l16.505,17.943c2.196,2.391,5.19,3.598,8.196,3.598
		c2.69,0,5.391-0.967,7.527-2.935c4.527-4.163,4.821-11.206,0.658-15.728L496.098,227.53z M400.695,228.172
		c0-6.141,4.995-11.13,11.13-11.13c6.136,0,11.13,4.989,11.13,11.13c0,6.141-4.995,11.13-11.13,11.13
		C405.69,239.302,400.695,234.313,400.695,228.172z"/>
	<path style="fill:#314E55;" d="M86.723,214.096l14.087-12.956l14.087,12.956c2.141,1.978,4.842,2.946,7.533,2.946
		c3.005,0,6-1.207,8.196-3.598c4.163-4.522,3.869-11.554-0.652-15.717l-19.02-17.505c0.097-0.592,0.352-1.126,0.352-1.745v-30.268
		c1.086-0.387,2.145-0.801,3.176-1.295l21.389,21.389c0.685,0.685,1.523,1.072,2.321,1.542l-1.011,24.371
		c-0.255,6.141,4.516,11.326,10.658,11.576c0.158,0.011,0.315,0.011,0.467,0.011c5.935,0,10.869-4.685,11.114-10.674l0.794-19.12
		l19.136-0.804c6.141-0.261,10.908-5.446,10.652-11.587c-0.261-6.13-5.174-11.185-11.587-10.652l-25.82,1.08
		c-0.349-0.486-0.547-1.045-0.984-1.482l-21.389-21.389c0.494-1.031,0.908-2.09,1.295-3.176h30.274c0.97,0,1.838-0.319,2.734-0.552
		l16.505,17.943c2.196,2.391,5.19,3.598,8.196,3.598c2.69,0,5.391-0.967,7.527-2.935c4.527-4.163,4.821-11.206,0.658-15.728
		l-12.962-14.098l12.962-14.087c4.163-4.522,3.869-11.565-0.652-15.717c-4.527-4.196-11.571-3.88-15.728,0.652l-17.499,19.014
		c-0.59-0.097-1.123-0.351-1.741-0.351h-30.273c-0.387-1.086-0.801-2.145-1.295-3.176l21.389-21.389
		c0.686-0.686,1.073-1.525,1.543-2.323l24.359,1.019c0.163,0.011,0.321,0.011,0.473,0.011c5.935,0,10.864-4.685,11.114-10.663
		c0.255-6.141-4.511-11.326-10.652-11.587l-19.136-0.804l-0.794-19.12c-0.255-6.141-5.429-11.141-11.581-10.663
		c-6.141,0.25-10.913,5.435-10.658,11.576l1.071,25.833c-0.485,0.348-1.042,0.545-1.479,0.982L114.48,86.822
		c-1.031-0.494-2.09-0.908-3.176-1.295V55.259c0-0.969-0.319-1.836-0.552-2.732l17.948-16.518
		c4.522-4.163,4.815-11.196,0.652-15.717c-4.163-4.533-11.196-4.837-15.728-0.652L99.538,32.596L85.451,19.639
		c-4.538-4.185-11.56-3.88-15.728,0.652c-4.163,4.522-3.869,11.554,0.652,15.717l19.02,17.505c-0.097,0.591-0.352,1.126-0.352,1.744
		v30.268c-1.086,0.387-2.145,0.801-3.176,1.295L64.478,65.432c-0.685-0.685-1.523-1.072-2.321-1.542l1.011-24.371
		c0.255-6.141-4.516-11.326-10.658-11.576c-6.375-0.5-11.332,4.522-11.581,10.663l-0.794,19.12L20.999,58.53
		c-6.141,0.261-10.908,5.446-10.652,11.587c0.25,5.978,5.179,10.663,11.114,10.663c0.152,0,0.31,0,0.473-0.011l25.82-1.08
		c0.349,0.486,0.547,1.045,0.984,1.482l21.389,21.389c-0.494,1.031-0.908,2.09-1.295,3.176H38.56c-0.97,0-1.838,0.319-2.734,0.552
		L19.321,88.346c-4.157-4.533-11.196-4.826-15.723-0.663c-4.527,4.163-4.821,11.206-0.658,15.728l12.962,14.098L2.94,131.595
		c-4.163,4.522-3.869,11.565,0.652,15.717c2.141,1.978,4.842,2.946,7.533,2.946c3.005,0,6-1.207,8.196-3.598l17.499-19.014
		c0.59,0.097,1.122,0.351,1.74,0.351h30.274c0.387,1.086,0.8,2.145,1.294,3.176l-21.389,21.389
		c-0.686,0.686-1.073,1.525-1.543,2.323l-24.359-1.019c-0.163-0.011-0.321-0.011-0.473-0.011c-5.935,0-10.864,4.685-11.114,10.663
		c-0.255,6.141,4.511,11.326,10.652,11.587l19.136,0.804l0.794,19.12c0.245,5.989,5.179,10.674,11.114,10.674
		c0.152,0,0.31,0,0.467-0.011c6.141-0.25,10.913-5.435,10.658-11.576L63,169.284c0.485-0.348,1.042-0.545,1.479-0.982l21.389-21.389
		c1.031,0.494,2.09,0.907,3.176,1.294v30.269c0,0.969,0.319,1.836,0.552,2.732l-17.948,16.518
		c-4.522,4.163-4.815,11.196-0.652,15.717C75.158,217.976,82.19,218.28,86.723,214.096z M89.043,116.868
		c0-6.141,4.994-11.13,11.13-11.13c6.136,0,11.13,4.989,11.13,11.13c0,6.141-4.994,11.13-11.13,11.13
		C94.038,127.998,89.043,123.009,89.043,116.868z"/>
</g>
<g>
</g>
<g>
</g>
<g>
</g>
<g>
</g>
<g>
</g>
<g>
</g>
<g>
</g>
<g>
</g>
<g>
</g>
<g>
</g>
<g>
</g>
<g>
</g>
<g>
</g>
<g>
</g>
<g>
</g>
</svg>
