<?xml version="1.0" encoding="iso-8859-1"?>
<!-- Generator: Adobe Illustrator 19.0.0, SVG Export Plug-In . SVG Version: 6.00 Build 0)  -->
<svg version="1.1" id="Layer_1" xmlns="http://www.w3.org/2000/svg" xmlns:xlink="http://www.w3.org/1999/xlink" x="0px" y="0px"
	 viewBox="0 0 512 512" style="enable-background:new 0 0 512 512;" xml:space="preserve">
<path style="fill:#FFFFFF;" d="M256,202.667c-29.406,0-53.333,23.927-53.333,53.333s23.927,53.333,53.333,53.333
	s53.333-23.927,53.333-53.333S285.406,202.667,256,202.667z"/>
<path style="fill:#314E55;" d="M452.417,256l56.458-56.458c4.167-4.167,4.167-10.917,0-15.083c-4.167-4.166-10.917-4.167-15.083,0
	l-60.875,60.875H329.815c-1.818-12.618-6.783-24.203-14.101-33.968l72.926-72.917h86.089c5.891,0,10.667-4.771,10.667-10.667
	c0-5.896-4.776-10.667-10.667-10.667h-79.838V37.271c0-5.896-4.776-10.667-10.667-10.667s-10.667,4.771-10.667,10.667v86.093
	l-72.928,72.919c-9.764-7.317-21.346-12.28-33.963-14.098V79.083l60.875-60.875c4.167-4.167,4.167-10.917,0-15.083
	s-10.917-4.167-15.083,0L256,59.583L199.542,3.125c-4.167-4.167-10.917-4.167-15.083,0s-4.167,10.917,0,15.083l60.875,60.875
	v103.102c-12.617,1.818-24.199,6.781-33.963,14.098l-72.928-72.918V37.271c0-5.896-4.776-10.667-10.667-10.667
	c-5.891,0-10.667,4.771-10.667,10.667v79.844H37.271c-5.891,0-10.667,4.771-10.667,10.667c0,5.896,4.776,10.667,10.667,10.667
	h86.089l72.926,72.917c-7.318,9.765-12.283,21.35-14.101,33.968H79.083l-60.875-60.875c-4.167-4.167-10.917-4.167-15.083,0
	c-4.166,4.167-4.167,10.917,0,15.083L59.583,256L3.125,312.458c-4.167,4.167-4.167,10.917,0,15.083
	c2.083,2.083,4.813,3.125,7.542,3.125s5.458-1.042,7.542-3.125l60.875-60.875h103.102c1.818,12.616,6.781,24.198,14.097,33.962
	l-72.923,72.923H37.271c-5.891,0-10.667,4.771-10.667,10.667s4.776,10.667,10.667,10.667h79.838v79.844
	c0,5.896,4.776,10.667,10.667,10.667c5.891,0,10.667-4.771,10.667-10.667v-86.094l72.922-72.922
	c9.765,7.318,21.35,12.283,33.969,14.101v103.102l-60.875,60.875c-4.167,4.167-4.167,10.917,0,15.083
	c4.167,4.166,10.917,4.167,15.083,0L256,452.417l56.458,56.458c2.083,2.083,4.813,3.125,7.542,3.125s5.458-1.042,7.542-3.125
	c4.167-4.167,4.167-10.917,0-15.083l-60.875-60.875V329.815c12.619-1.818,24.204-6.783,33.969-14.101l72.922,72.922v86.094
	c0,5.896,4.776,10.667,10.667,10.667s10.667-4.771,10.667-10.667v-79.844h79.839c5.891,0,10.667-4.771,10.667-10.667
	s-4.776-10.667-10.667-10.667h-86.089l-72.923-72.923c7.317-9.764,12.279-21.346,14.097-33.962h103.102l60.875,60.875
	c2.083,2.083,4.813,3.125,7.542,3.125c2.729,0,5.458-1.042,7.542-3.125c4.167-4.167,4.167-10.917,0-15.083L452.417,256z
	 M256,309.333c-29.406,0-53.333-23.927-53.333-53.333s23.927-53.333,53.333-53.333s53.333,23.927,53.333,53.333
	S285.406,309.333,256,309.333z"/>
<g>
</g>
<g>
</g>
<g>
</g>
<g>
</g>
<g>
</g>
<g>
</g>
<g>
</g>
<g>
</g>
<g>
</g>
<g>
</g>
<g>
</g>
<g>
</g>
<g>
</g>
<g>
</g>
<g>
</g>
</svg>
