<?xml version="1.0" encoding="iso-8859-1"?>
<!-- Generator: Adobe Illustrator 19.0.0, SVG Export Plug-In . SVG Version: 6.00 Build 0)  -->
<svg version="1.1" id="Layer_1" xmlns="http://www.w3.org/2000/svg" xmlns:xlink="http://www.w3.org/1999/xlink" x="0px" y="0px"
	 viewBox="0 0 512 512" style="enable-background:new 0 0 512 512;" xml:space="preserve">
<g>
	<circle style="fill:#D8D8D8;" cx="399.654" cy="319.131" r="13.471"/>
	<circle style="fill:#D8D8D8;" cx="314.335" cy="179.925" r="8.981"/>
	<circle style="fill:#D8D8D8;" cx="417.616" cy="238.302" r="13.471"/>
	<path style="fill:#D8D8D8;" d="M458.031,404.439c9.906,0,17.962-8.06,17.962-17.962s-8.056-17.962-17.962-17.962
		s-17.962,8.06-17.962,17.962S448.125,404.439,458.031,404.439z"/>
</g>
<path style="fill:#E9E7D1;" d="M233.326,154.322l-18.216,20.216c-1.912,2.122-4.754,3.166-7.543,2.929
	c-2.837-0.272-5.372-1.877-6.837-4.324l-47.593-79.504L50.851,430.865h292.075L233.326,154.322z"/>
<g>
	<path style="fill:#314E55;" d="M422.107,386.477c0,19.813,16.116,35.924,35.924,35.924c19.808,0,35.924-16.111,35.924-35.924
		s-16.116-35.924-35.924-35.924C438.223,350.553,422.107,366.664,422.107,386.477z M458.031,368.515
		c9.906,0,17.962,8.06,17.962,17.962s-8.056,17.962-17.962,17.962s-17.962-8.06-17.962-17.962S448.125,368.515,458.031,368.515z"/>
	<path style="fill:#314E55;" d="M417.616,269.724c17.331,0,31.433-14.103,31.433-31.433s-14.103-31.433-31.433-31.433
		s-31.433,14.103-31.433,31.433S400.286,269.724,417.616,269.724z M417.616,224.819c7.429,0,13.471,6.043,13.471,13.471
		s-6.043,13.471-13.471,13.471s-13.471-6.043-13.471-13.471S410.188,224.819,417.616,224.819z"/>
	<path style="fill:#314E55;" d="M314.335,206.857c14.857,0,26.943-12.086,26.943-26.943s-12.086-26.943-26.943-26.943
		s-26.943,12.086-26.943,26.943S299.478,206.857,314.335,206.857z M314.335,170.933c4.951,0,8.981,4.026,8.981,8.981
		c0,4.955-4.03,8.981-8.981,8.981s-8.981-4.026-8.981-8.981C305.354,174.959,309.384,170.933,314.335,170.933z"/>
	<path style="fill:#314E55;" d="M399.654,350.553c17.331,0,31.433-14.103,31.433-31.433s-14.103-31.434-31.433-31.434
		c-17.331,0-31.434,14.103-31.434,31.434S382.324,350.553,399.654,350.553z M399.654,305.648c7.429,0,13.471,6.043,13.471,13.471
		c0,7.429-6.043,13.471-13.471,13.471s-13.471-6.043-13.471-13.471C386.183,311.691,392.226,305.648,399.654,305.648z"/>
	<path style="fill:#314E55;" d="M362.454,431.382L244.693,134.246c-1.145-2.894-3.701-4.982-6.758-5.534
		c-3.065-0.544-6.188,0.526-8.266,2.833L209.9,153.489l-51.768-86.477c-1.829-3.052-5.306-4.692-8.801-4.298
		c-3.526,0.43-6.468,2.903-7.499,6.306L31.926,431.382H0v17.962h512v-17.962H362.454z M153.137,93.639l47.593,79.505
		c1.465,2.447,3.999,4.052,6.837,4.324c2.789,0.237,5.631-0.807,7.543-2.929l18.216-20.216l109.601,276.543H50.851L153.137,93.639z"
		/>
</g>
<g>
</g>
<g>
</g>
<g>
</g>
<g>
</g>
<g>
</g>
<g>
</g>
<g>
</g>
<g>
</g>
<g>
</g>
<g>
</g>
<g>
</g>
<g>
</g>
<g>
</g>
<g>
</g>
<g>
</g>
</svg>
