<?xml version="1.0" encoding="iso-8859-1"?>
<!-- Generator: Adobe Illustrator 19.0.0, SVG Export Plug-In . SVG Version: 6.00 Build 0)  -->
<svg version="1.1" id="Layer_1" xmlns="http://www.w3.org/2000/svg" xmlns:xlink="http://www.w3.org/1999/xlink" x="0px" y="0px"
	 viewBox="0 0 512 512" style="enable-background:new 0 0 512 512;" xml:space="preserve">
<g>
	<path style="fill:#81A4E3;" d="M219.008,272.973c0,18.83,15.317,34.147,34.147,34.147s34.147-15.317,34.147-34.147
		c0-12.238-17.862-40.188-34.147-61.43C236.87,232.802,219.008,260.757,219.008,272.973z"/>
	<path style="fill:#81A4E3;" d="M76.73,272.973c0,18.83,15.317,34.147,34.147,34.147s34.147-15.317,34.147-34.147
		c0-12.238-17.862-40.188-34.147-61.43C94.592,232.802,76.73,260.757,76.73,272.973z"/>
	<path style="fill:#81A4E3;" d="M76.73,90.858c0,18.83,15.317,34.147,34.147,34.147s34.147-15.317,34.147-34.147
		c0-12.238-17.862-40.188-34.147-61.43C94.592,50.687,76.73,78.642,76.73,90.858z"/>
	<path style="fill:#81A4E3;" d="M401.123,125.004c18.83,0,34.147-15.317,34.147-34.147c0-12.238-17.862-40.188-34.147-61.43
		c-16.284,21.258-34.147,49.214-34.147,61.43C366.977,109.687,382.294,125.004,401.123,125.004z"/>
	<path style="fill:#81A4E3;" d="M76.73,455.089c0,18.83,15.317,34.147,34.147,34.147s34.147-15.317,34.147-34.147
		c0-12.238-17.862-40.182-34.147-61.435C94.592,414.918,76.73,442.873,76.73,455.089z"/>
	<path style="fill:#81A4E3;" d="M219.008,455.089c0,18.83,15.317,34.147,34.147,34.147s34.147-15.317,34.147-34.147
		c0-12.238-17.862-40.182-34.147-61.435C236.87,414.918,219.008,442.873,219.008,455.089z"/>
	<path style="fill:#81A4E3;" d="M366.977,272.973c0,18.83,15.317,34.147,34.147,34.147s34.147-15.317,34.147-34.147
		c0-12.238-17.862-40.188-34.147-61.43C384.839,232.802,366.977,260.757,366.977,272.973z"/>
	<path style="fill:#81A4E3;" d="M366.977,455.089c0,18.83,15.317,34.147,34.147,34.147s34.147-15.317,34.147-34.147
		c0-12.238-17.862-40.182-34.147-61.435C384.839,414.918,366.977,442.873,366.977,455.089z"/>
	<path style="fill:#81A4E3;" d="M219.008,90.858c0,18.83,15.317,34.147,34.147,34.147s34.147-15.317,34.147-34.147
		c0-12.238-17.862-40.188-34.147-61.43C236.87,50.687,219.008,78.642,219.008,90.858z"/>
</g>
<g>
	<path style="fill:#314E55;" d="M102.14,3.885c-8.048,9.637-48.174,59.112-48.174,86.973c0,31.379,25.532,56.911,56.911,56.911
		s56.911-25.532,56.911-56.911c0-27.861-40.127-77.336-48.174-86.973C115.278-1.295,106.475-1.295,102.14,3.885z M110.877,125.004
		c-18.83,0-34.147-15.317-34.147-34.147c0-12.216,17.862-40.171,34.147-61.43c16.284,21.242,34.147,49.191,34.147,61.43
		C145.023,109.687,129.706,125.004,110.877,125.004z"/>
	<path style="fill:#314E55;" d="M102.14,186c-8.048,9.637-48.174,59.112-48.174,86.973c0,31.379,25.532,56.911,56.911,56.911
		s56.911-25.532,56.911-56.911c0-27.861-40.127-77.336-48.174-86.973C115.278,180.821,106.475,180.821,102.14,186z M110.877,307.12
		c-18.83,0-34.147-15.317-34.147-34.147c0-12.216,17.862-40.171,34.147-61.43c16.284,21.242,34.147,49.191,34.147,61.43
		C145.023,291.803,129.706,307.12,110.877,307.12z"/>
	<path style="fill:#314E55;" d="M102.14,368.122c-8.048,9.637-48.174,59.112-48.174,86.967c0,31.379,25.532,56.911,56.911,56.911
		s56.911-25.532,56.911-56.911c0-27.855-40.127-77.33-48.174-86.967C115.278,362.942,106.475,362.942,102.14,368.122z
		 M110.877,489.236c-18.83,0-34.147-15.317-34.147-34.147c0-12.216,17.862-40.171,34.147-61.435
		c16.284,21.253,34.147,49.197,34.147,61.435C145.023,473.919,129.706,489.236,110.877,489.236z"/>
	<path style="fill:#314E55;" d="M244.418,3.885c-8.048,9.637-48.174,59.112-48.174,86.973c0,31.379,25.532,56.911,56.911,56.911
		s56.911-25.532,56.911-56.911c0-27.861-40.127-77.336-48.174-86.973C257.556-1.295,248.753-1.295,244.418,3.885z M253.154,125.004
		c-18.83,0-34.147-15.317-34.147-34.147c0-12.216,17.862-40.171,34.147-61.43c16.284,21.242,34.147,49.191,34.147,61.43
		C287.301,109.687,271.984,125.004,253.154,125.004z"/>
	<path style="fill:#314E55;" d="M244.418,186c-8.048,9.637-48.174,59.112-48.174,86.973c0,31.379,25.532,56.911,56.911,56.911
		s56.911-25.532,56.911-56.911c0-27.861-40.127-77.336-48.174-86.973C257.556,180.821,248.753,180.821,244.418,186z M253.154,307.12
		c-18.83,0-34.147-15.317-34.147-34.147c0-12.216,17.862-40.171,34.147-61.43c16.284,21.242,34.147,49.191,34.147,61.43
		C287.301,291.803,271.984,307.12,253.154,307.12z"/>
	<path style="fill:#314E55;" d="M244.418,368.122c-8.048,9.637-48.174,59.112-48.174,86.967c0,31.379,25.532,56.911,56.911,56.911
		s56.911-25.532,56.911-56.911c0-27.855-40.127-77.33-48.174-86.967C257.556,362.942,248.753,362.942,244.418,368.122z
		 M253.154,489.236c-18.83,0-34.147-15.317-34.147-34.147c0-12.216,17.862-40.171,34.147-61.435
		c16.284,21.253,34.147,49.197,34.147,61.435C287.301,473.919,271.984,489.236,253.154,489.236z"/>
	<path style="fill:#314E55;" d="M401.123,147.769c31.379,0,56.911-25.532,56.911-56.911c0-27.861-40.127-77.336-48.174-86.973
		c-4.335-5.18-13.138-5.18-17.473,0c-8.047,9.637-48.174,59.112-48.174,86.973C344.212,122.237,369.745,147.769,401.123,147.769z
		 M401.123,29.428c16.284,21.242,34.147,49.191,34.147,61.43c0,18.83-15.317,34.147-34.147,34.147s-34.147-15.317-34.147-34.147
		C366.977,78.642,384.839,50.687,401.123,29.428z"/>
	<path style="fill:#314E55;" d="M392.387,186c-8.048,9.637-48.174,59.112-48.174,86.973c0,31.379,25.532,56.911,56.911,56.911
		s56.911-25.532,56.911-56.911c0-27.861-40.127-77.336-48.174-86.973C405.525,180.821,396.722,180.821,392.387,186z M401.123,307.12
		c-18.83,0-34.147-15.317-34.147-34.147c0-12.216,17.862-40.171,34.147-61.43c16.284,21.242,34.147,49.191,34.147,61.43
		C435.27,291.803,419.953,307.12,401.123,307.12z"/>
	<path style="fill:#314E55;" d="M392.387,368.122c-8.048,9.637-48.174,59.112-48.174,86.967c0,31.379,25.532,56.911,56.911,56.911
		s56.911-25.532,56.911-56.911c0-27.855-40.127-77.33-48.174-86.967C405.525,362.942,396.722,362.942,392.387,368.122z
		 M401.123,489.236c-18.83,0-34.147-15.317-34.147-34.147c0-12.216,17.862-40.171,34.147-61.435
		c16.284,21.253,34.147,49.197,34.147,61.435C435.27,473.919,419.953,489.236,401.123,489.236z"/>
</g>
<g>
</g>
<g>
</g>
<g>
</g>
<g>
</g>
<g>
</g>
<g>
</g>
<g>
</g>
<g>
</g>
<g>
</g>
<g>
</g>
<g>
</g>
<g>
</g>
<g>
</g>
<g>
</g>
<g>
</g>
</svg>
