<?xml version="1.0" encoding="iso-8859-1"?>
<!-- Generator: Adobe Illustrator 19.0.0, SVG Export Plug-In . SVG Version: 6.00 Build 0)  -->
<svg version="1.1" id="Capa_1" xmlns="http://www.w3.org/2000/svg" xmlns:xlink="http://www.w3.org/1999/xlink" x="0px" y="0px"
	 viewBox="0 0 511.999 511.999" style="enable-background:new 0 0 511.999 511.999;" xml:space="preserve">
<g>
	<path style="fill:#14977C;" d="M447.215,177.919C423.713,113.986,370.65,68.811,256,68.811S88.286,113.986,64.785,177.919
		l27.799,58.345h315.302L447.215,177.919z"/>
	<path style="fill:#14977C;" d="M47.741,326.656c0.332,14.002,0.926,28.017,1.589,41.906l33.916,71.569h372.52l6.904-71.569
		c0.663-13.889,1.258-27.902,1.589-41.906l-17.043-60.22H75.99L47.741,326.656z"/>
</g>
<g>
	<path style="fill:#117D66;" d="M122.859,393.857c-11.437-24.134-17.806-50.383-18.447-77.082l-0.01-0.42
		c-0.411-16.764-0.458-33.493,0.181-49.918H75.99l-28.249,60.22c0.082,3.501,0.182,7.002,0.295,10.502
		c0.226,7,0.505,13.994,0.813,20.965c0.155,3.486,0.315,6.965,0.481,10.438l33.916,71.569l56.66-10.302L122.859,393.857z"/>
	<path style="fill:#117D66;" d="M92.585,236.264h14.067c2.471-24.295,7.01-47.499,14.792-68.647
		c16.455-44.762,47.406-80.324,103.833-97.63c-1.516,0.122-3.019,0.252-4.511,0.391c-37.248,3.496-75.187,13.504-105.356,36.519
		c-23.629,18.025-40.408,43.249-50.606,70.965c-0.007,0.019-0.014,0.037-0.021,0.056L92.585,236.264z"/>
</g>
<path style="fill:#E95552;" d="M464.258,326.656l-11.785-15.774c-4.458-5.967-11.157-8.962-17.855-8.962
	c-6.71,0-13.409,2.995-17.866,8.962s-11.157,8.95-17.866,8.95c-6.698,0-13.396-2.983-17.855-8.95
	c-4.458-5.967-11.157-8.962-17.855-8.962c-6.71,0-13.409,2.995-17.866,8.962c-4.458,5.967-11.157,8.95-17.866,8.95
	c-6.698,0-13.396-2.983-17.855-8.95c-4.458-5.967-11.157-8.962-17.855-8.962c-6.71,0-13.409,2.995-17.866,8.962
	c-4.458,5.967-11.168,8.95-17.866,8.95c-6.698,0-13.409-2.983-17.866-8.95s-11.157-8.962-17.866-8.962
	c-6.698,0-13.396,2.995-17.855,8.962c-4.458,5.967-11.157,8.95-17.855,8.95c-6.71,0-13.409-2.983-17.866-8.95
	c-4.458-5.967-11.157-8.962-17.866-8.962c-6.698,0-13.396,2.995-17.855,8.962c-4.458,5.967-11.157,8.95-17.855,8.95
	c-6.71,0-13.409-2.983-17.866-8.95c-8.916-11.945-26.805-11.945-35.722,0l-11.785,15.774
	c-1.292-52.719,0.983-105.095,17.043-148.738c3.773-2.606,8.185-3.91,12.597-3.91c6.71,0,13.409,2.995,17.866,8.962
	c4.458,5.967,11.157,8.95,17.866,8.95c6.698,0,13.396-2.983,17.855-8.95c4.458-5.967,11.157-8.962,17.855-8.962
	c6.71,0,13.409,2.995,17.866,8.962c4.458,5.967,11.157,8.95,17.866,8.95c6.698,0,13.396-2.983,17.855-8.95
	c4.458-5.967,11.157-8.962,17.855-8.962c6.71,0,13.409,2.995,17.866,8.962c4.458,5.967,11.168,8.95,17.866,8.95
	c6.698,0,13.409-2.983,17.866-8.95c4.458-5.967,11.157-8.962,17.866-8.962c6.698,0,13.396,2.995,17.855,8.962
	c4.458,5.967,11.157,8.95,17.855,8.95c6.71,0,13.409-2.983,17.866-8.95c4.458-5.967,11.157-8.962,17.866-8.962
	c6.698,0,13.396,2.995,17.855,8.962c4.458,5.967,11.157,8.95,17.855,8.95c6.71,0,13.409-2.983,17.866-8.95
	c7.396-9.91,20.964-11.602,30.464-5.052C463.275,221.561,465.55,273.938,464.258,326.656z"/>
<path style="fill:#D13834;" d="M47.741,326.656l11.785-15.775c8.916-11.945,26.805-11.945,35.722,0
	c2.495,3.34,5.694,5.744,9.203,7.214c-0.014-0.581-0.035-1.161-0.048-1.742c-1.06-43.266,0.288-86.295,9.681-124.46
	c-0.322,0.013-0.645,0.027-0.968,0.027c-6.71,0-13.409-2.983-17.866-8.95c-4.458-5.967-11.157-8.962-17.866-8.962
	c-4.412,0-8.825,1.303-12.597,3.91l0,0c-13.551,36.824-17.287,79.865-17.348,124.083C47.425,310.19,47.539,318.419,47.741,326.656z"
	/>
<path style="fill:#E95552;" d="M462.674,368.564c-33.932,7.138-116.556,22.287-206.675,22.287S83.257,375.702,49.325,368.564
	c-8.398-1.767-16.291,4.634-16.291,13.216v93.523c0,6.354,4.426,11.843,10.632,13.198C73.2,494.946,160.381,511.999,256,511.999
	s182.799-17.054,212.334-23.499c6.208-1.355,10.633-6.844,10.633-13.198v-93.523C478.966,373.198,471.073,366.797,462.674,368.564z"
	/>
<path style="fill:#D13834;" d="M94.844,492.954V377.009c-19.175-3.128-34.785-6.188-45.52-8.445
	c-8.398-1.767-16.291,4.635-16.291,13.216v93.523c0,6.354,4.426,11.843,10.632,13.198c10.576,2.308,28.545,5.976,51.644,9.734
	C95.007,496.543,94.844,494.774,94.844,492.954z"/>
<path style="fill:#E95552;" d="M309.251,46.76L309.251,46.76L309.251,46.76c9.457-19.896-11.298-40.651-31.194-31.194l0,0
	c-7.381-20.755-36.733-20.755-44.114,0l0,0c-19.896-9.457-40.651,11.298-31.194,31.194l0,0l0,0
	c-20.755,7.381-20.755,36.733,0,44.114c-9.457,19.896,11.298,40.651,31.194,31.194l0,0c7.381,20.755,36.733,20.755,44.114,0l0,0
	c19.896,9.457,40.651-11.298,31.194-31.194C330.006,83.493,330.006,54.14,309.251,46.76z"/>
<g>
</g>
<g>
</g>
<g>
</g>
<g>
</g>
<g>
</g>
<g>
</g>
<g>
</g>
<g>
</g>
<g>
</g>
<g>
</g>
<g>
</g>
<g>
</g>
<g>
</g>
<g>
</g>
<g>
</g>
</svg>
