<?xml version="1.0" encoding="iso-8859-1"?>
<!-- Generator: Adobe Illustrator 19.0.0, SVG Export Plug-In . SVG Version: 6.00 Build 0)  -->
<svg version="1.1" id="Layer_1" xmlns="http://www.w3.org/2000/svg" xmlns:xlink="http://www.w3.org/1999/xlink" x="0px" y="0px"
	 viewBox="0 0 512 512" style="enable-background:new 0 0 512 512;" xml:space="preserve">
<polygon style="fill:#FFFFFF;" points="383.022,436.253 384.198,360.724 343.913,360.724 "/>
<polygon style="fill:#D8D8D8;" points="256,458.146 277.406,360.28 234.594,360.28 "/>
<path style="fill:#73C9C9;" d="M398.216,142.216c-1.435,0-2.852,0.037-4.268,0.106c-2.537,0.19-5.12-0.805-7.009-2.597
	c-1.88-1.791-2.944-4.273-2.944-6.87c0-62.854-53.164-113.893-118.513-113.893c-51.905,0-97.32,31.887-112.995,79.344
	c-1.389,4.222-5.555,6.916-9.925,6.463c-3.231-0.315-6.509-0.477-9.814-0.477c-54.896,0-99.551,44.66-99.551,99.551
	s44.655,99.551,99.551,99.551c1.463,0,2.907-0.028,4.352-0.093c0.611-0.018,1.222,0,1.805,0.093h262.525
	c0.333-0.055,0.667-0.093,1-0.106c42.832-2.208,76.376-37.559,76.376-80.483C478.805,178.367,442.649,142.216,398.216,142.216z"/>
<polygon style="fill:#D8D8D8;" points="130.543,436.249 169.652,360.724 129.376,360.724 "/>
<g>
	<path style="fill:#314E55;" d="M393.827,341.762H328.33c-3.305,0-6.379,1.727-8.102,4.555c-1.722,2.824-1.842,6.347-0.315,9.287
		l63.59,122.809c1.648,3.194,4.935,5.12,8.416,5.12c0.722,0,1.444-0.083,2.176-0.25c4.222-0.995,7.24-4.741,7.305-9.083
		l1.907-122.809c0.037-2.542-0.945-4.991-2.722-6.801C398.799,342.781,396.364,341.762,393.827,341.762z M383.022,436.253
		l-39.109-75.529h40.285L383.022,436.253z"/>
	<path style="fill:#314E55;" d="M185.235,341.762h-65.488c-2.537,0-4.972,1.019-6.759,2.829c-1.778,1.81-2.759,4.259-2.722,6.801
		l1.898,122.809c0.065,4.342,3.083,8.083,7.305,9.083c0.731,0.167,1.454,0.25,2.176,0.25c3.481,0,6.768-1.926,8.416-5.12
		l63.59-122.809c1.528-2.94,1.407-6.463-0.315-9.287C191.614,343.489,188.54,341.762,185.235,341.762z M130.543,436.249
		l-1.167-75.524h40.276L130.543,436.249z"/>
	<path style="fill:#314E55;" d="M289.184,341.318h-66.367c-2.87,0-5.583,1.301-7.389,3.537c-1.796,2.236-2.491,5.166-1.87,7.972
		l33.184,151.72c0.944,4.352,4.805,7.453,9.259,7.453s8.314-3.102,9.259-7.453l33.184-151.72c0.62-2.805-0.074-5.736-1.87-7.972
		C294.767,342.619,292.054,341.318,289.184,341.318z M256,458.146l-21.406-97.866h42.813L256,458.146z"/>
	<path style="fill:#314E55;" d="M402.614,123.351C397.614,54.521,338.015,0,265.481,0c-57.544,0-108.254,34.026-128.485,85.403
		c-1.407-0.051-2.824-0.074-4.25-0.074c-65.349,0-118.513,53.164-118.513,118.513s53.164,118.513,118.513,118.513
		c1.241,0,2.481-0.018,3.713-0.055c0.342,0.037,0.685,0.055,1.028,0.055h265.469c0.685,0,1.361-0.079,2.018-0.227
		c52.164-3.495,92.792-46.827,92.792-99.324C497.767,169.386,455.472,125.661,402.614,123.351z M402.428,303.287
		c-0.333,0.014-0.667,0.051-1,0.106H138.904c-0.583-0.093-1.194-0.111-1.805-0.093c-1.444,0.065-2.889,0.093-4.352,0.093
		c-54.896,0-99.551-44.66-99.551-99.551s44.655-99.551,99.551-99.551c3.305,0,6.583,0.162,9.814,0.477
		c4.37,0.454,8.537-2.241,9.925-6.463c15.675-47.456,61.09-79.344,112.995-79.344c65.349,0,118.513,51.039,118.513,113.893
		c0,2.597,1.065,5.079,2.944,6.87c1.889,1.792,4.472,2.787,7.009,2.597c1.417-0.069,2.833-0.106,4.268-0.106
		c44.433,0,80.589,36.151,80.589,80.589C478.805,265.729,445.26,301.079,402.428,303.287z"/>
</g>
<g>
</g>
<g>
</g>
<g>
</g>
<g>
</g>
<g>
</g>
<g>
</g>
<g>
</g>
<g>
</g>
<g>
</g>
<g>
</g>
<g>
</g>
<g>
</g>
<g>
</g>
<g>
</g>
<g>
</g>
</svg>
