<?xml version="1.0" encoding="iso-8859-1"?>
<!-- Generator: Adobe Illustrator 19.0.0, SVG Export Plug-In . SVG Version: 6.00 Build 0)  -->
<svg version="1.1" id="Layer_1" xmlns="http://www.w3.org/2000/svg" xmlns:xlink="http://www.w3.org/1999/xlink" x="0px" y="0px"
	 viewBox="0 0 512 512" style="enable-background:new 0 0 512 512;" xml:space="preserve">
<path style="fill:#81A4E3;" d="M406.588,162.49c-1.52,0-3.02,0.039-4.515,0.113c-2.799,0.181-5.431-0.858-7.421-2.75
	c-1.995-1.897-3.123-4.524-3.123-7.274c0-66.554-56.294-120.598-125.49-120.598c-54.966,0-103.044,33.765-119.642,84.015
	c-1.48,4.466-5.907,7.319-10.515,6.843c-3.417-0.333-6.887-0.505-10.392-0.505c-58.123,0-105.412,47.289-105.412,105.412
	c0,58.128,47.289,105.412,105.412,105.412c1.554,0,3.103-0.039,4.637-0.098c0.627-0.059,1.265,0.01,1.882,0.098h277.985
	c0.348-0.059,0.706-0.098,1.064-0.118c45.343-2.324,80.863-39.765,80.863-85.216C491.922,200.77,453.642,162.49,406.588,162.49z"/>
<g>
	<path style="fill:#314E55;" d="M411.25,142.515c-5.299-72.882-68.402-130.613-145.211-130.613
		c-60.936,0-114.628,36.029-136.044,90.431c-1.495-0.054-2.995-0.078-4.505-0.078C56.294,102.255,0,158.549,0,227.745
		s56.294,125.49,125.49,125.49c1.309,0,2.613-0.02,3.917-0.059c0.363,0.039,0.731,0.059,1.103,0.059h281.098
		c0.726,0,1.441-0.078,2.132-0.235c55.235-3.696,98.26-49.578,98.26-105.176C512,191.26,467.221,144.961,411.25,142.515z
		 M411.059,333.039c-0.358,0.02-0.716,0.059-1.064,0.118H132.01c-0.618-0.088-1.255-0.157-1.882-0.098
		c-1.534,0.059-3.084,0.098-4.637,0.098c-58.123,0-105.412-47.284-105.412-105.412c0-58.123,47.289-105.412,105.412-105.412
		c3.505,0,6.975,0.172,10.392,0.505c4.608,0.476,9.034-2.378,10.515-6.843c16.598-50.25,64.676-84.015,119.642-84.015
		c69.196,0,125.49,54.044,125.49,120.598c0,2.75,1.127,5.378,3.122,7.274c1.99,1.892,4.623,2.931,7.422,2.75
		c1.495-0.074,2.995-0.113,4.515-0.113c47.054,0,85.333,38.28,85.333,85.333C491.922,293.275,456.402,330.716,411.059,333.039z"/>
	<path style="fill:#314E55;" d="M190.745,375.539c-5.544,0-10.039,4.49-10.039,10.039v104.48c0,5.549,4.495,10.039,10.039,10.039
		s10.039-4.49,10.039-10.039v-104.48C200.784,380.03,196.289,375.539,190.745,375.539z"/>
	<path style="fill:#314E55;" d="M250.98,375.539c-5.544,0-10.039,4.49-10.039,10.039v104.48c0,5.549,4.495,10.039,10.039,10.039
		s10.039-4.49,10.039-10.039v-104.48C261.02,380.03,256.525,375.539,250.98,375.539z"/>
	<path style="fill:#314E55;" d="M311.216,375.539c-5.544,0-10.039,4.49-10.039,10.039v104.48c0,5.549,4.495,10.039,10.039,10.039
		s10.039-4.49,10.039-10.039v-104.48C321.255,380.03,316.76,375.539,311.216,375.539z"/>
</g>
<g>
</g>
<g>
</g>
<g>
</g>
<g>
</g>
<g>
</g>
<g>
</g>
<g>
</g>
<g>
</g>
<g>
</g>
<g>
</g>
<g>
</g>
<g>
</g>
<g>
</g>
<g>
</g>
<g>
</g>
</svg>
