<?xml version="1.0" encoding="iso-8859-1"?>
<!-- Generator: Adobe Illustrator 19.0.0, SVG Export Plug-In . SVG Version: 6.00 Build 0)  -->
<svg version="1.1" id="Layer_1" xmlns="http://www.w3.org/2000/svg" xmlns:xlink="http://www.w3.org/1999/xlink" x="0px" y="0px"
	 viewBox="0 0 512 512" style="enable-background:new 0 0 512 512;" xml:space="preserve">
<path style="fill:#73C9C9;" d="M407.332,234.207c-1.534,0-3.056,0.039-4.569,0.121c-2.414,0.168-4.789-0.733-6.547-2.405
	c-1.763-1.668-2.759-3.987-2.759-6.409c0-68.431-57.138-123.996-127.366-123.996c-55.767,0-104.56,34.694-121.423,86.336
	c-1.284,3.935-5.103,6.461-9.259,6.043c-3.474-0.341-7-0.517-10.56-0.517c-59.108,0-107.194,48.698-107.194,108.552
	s48.086,108.552,107.194,108.552c1.56,0,3.121-0.03,4.668-0.104c0.621-0.022,1.224,0.013,1.806,0.104h279.526
	c0.336-0.06,0.681-0.099,1.026-0.116c46.246-2.409,82.47-41.073,82.47-88.022C494.345,273.746,455.31,234.207,407.332,234.207z
	 M333.116,296.297c3.302,3.591,3.069,9.172-0.517,12.474c-1.698,1.56-3.84,2.332-5.974,2.332c-2.384,0-4.759-0.957-6.5-2.849
	l-13.096-14.234c-0.71,0.184-1.395,0.437-2.162,0.437h-24.01c-0.307,0.862-0.635,1.701-1.027,2.519l16.964,16.964
	c0.346,0.346,0.502,0.788,0.779,1.172l20.484-0.849c4.909-0.254,8.983,3.586,9.185,8.453c0.203,4.871-3.582,8.983-8.453,9.185
	l-15.172,0.629l-0.629,15.172c-0.194,4.746-4.108,8.461-8.815,8.461c-0.121,0-0.246-0.004-0.371-0.009
	c-4.871-0.203-8.655-4.315-8.453-9.185l0.801-19.325c-0.633-0.372-1.297-0.679-1.84-1.222l-16.964-16.964
	c-0.818,0.392-1.657,0.72-2.519,1.027v24.01c0,0.489-0.202,0.912-0.279,1.379l15.085,13.879c3.586,3.302,3.819,8.884,0.517,12.474
	c-1.741,1.892-4.116,2.849-6.5,2.849c-2.134,0-4.276-0.772-5.974-2.332l-11.172-10.28l-11.172,10.28
	c-3.591,3.297-9.177,3.069-12.474-0.517c-3.302-3.591-3.069-9.172,0.517-12.474l14.234-13.096c-0.184-0.71-0.437-1.395-0.437-2.162
	v-24.011c-0.862-0.307-1.701-0.635-2.519-1.026l-16.964,16.964c-0.346,0.346-0.788,0.502-1.172,0.779l0.849,20.484
	c0.203,4.871-3.582,8.983-8.453,9.185c-0.125,0.004-0.25,0.009-0.371,0.009c-4.711,0-8.621-3.716-8.815-8.461l-0.629-15.172
	l-15.172-0.629c-4.871-0.203-8.655-4.315-8.453-9.185c0.198-4.866,4.082-8.703,9.185-8.453l19.325,0.801
	c0.372-0.632,0.679-1.297,1.222-1.84l16.964-16.964c-0.392-0.818-0.719-1.657-1.026-2.519h-24.011c-0.489,0-0.912-0.202-1.379-0.279
	l-13.879,15.085c-1.741,1.892-4.116,2.849-6.5,2.849c-2.134,0-4.276-0.772-5.974-2.332c-3.586-3.302-3.819-8.884-0.517-12.474
	l10.28-11.172l-10.28-11.172c-3.302-3.591-3.069-9.172,0.517-12.474c3.599-3.306,9.181-3.069,12.474,0.517l13.096,14.234
	c0.71-0.184,1.395-0.437,2.162-0.437h24.01c0.307-0.862,0.635-1.701,1.027-2.519l-16.964-16.964
	c-0.346-0.346-0.502-0.788-0.779-1.172l-20.484,0.849c-0.125,0.004-0.25,0.009-0.371,0.009c-4.711,0-8.621-3.716-8.815-8.461
	c-0.203-4.871,3.582-8.983,8.453-9.185l15.172-0.629l0.629-15.172c0.198-4.866,4.164-8.655,9.185-8.453
	c4.871,0.203,8.655,4.315,8.453,9.185l-0.801,19.325c0.632,0.372,1.297,0.679,1.84,1.222l16.964,16.964
	c0.818-0.392,1.657-0.72,2.519-1.027v-24.01c0-0.489,0.202-0.912,0.279-1.379l-15.085-13.879c-3.586-3.302-3.819-8.884-0.517-12.474
	c3.302-3.582,8.879-3.819,12.474-0.517l11.172,10.28l11.172-10.28c3.599-3.302,9.168-3.065,12.474,0.517
	c3.302,3.591,3.069,9.172-0.517,12.474L264.391,234.6c0.184,0.71,0.437,1.396,0.437,2.162v24.01
	c0.862,0.307,1.701,0.635,2.519,1.027l16.964-16.964c0.346-0.346,0.788-0.502,1.172-0.779l-0.849-20.484
	c-0.203-4.871,3.582-8.983,8.453-9.185c5.03-0.293,8.987,3.582,9.185,8.453l0.629,15.172l15.172,0.629
	c4.871,0.203,8.655,4.315,8.453,9.185c-0.194,4.746-4.108,8.461-8.815,8.461c-0.121,0-0.246-0.004-0.371-0.009l-19.325-0.801
	c-0.372,0.632-0.679,1.297-1.222,1.84l-16.964,16.964c0.392,0.818,0.72,1.657,1.027,2.519h24.01c0.489,0,0.912,0.202,1.379,0.279
	l13.879-15.085c3.302-3.582,8.875-3.819,12.474-0.517c3.586,3.302,3.819,8.884,0.517,12.474l-10.28,11.172L333.116,296.297z"/>
<g>
	<path style="fill:#314E55;" d="M410.836,216.612c-4.655-73.97-67.797-132.75-144.746-132.75
		c-61.052,0-114.797,36.677-135.897,91.974c-1.78-0.073-3.565-0.112-5.345-0.112C56.009,175.724,0,232.34,0,301.931
		s56.009,126.207,124.849,126.207c1.332,0,2.664-0.022,3.991-0.065c0.345,0.043,0.698,0.065,1.052,0.065h282.483
		c0.672,0,1.336-0.082,1.974-0.233C469.233,424.228,512,378.164,512,322.345C512,265.194,466.935,218.487,410.836,216.612z
		 M411.875,410.366c-0.345,0.017-0.69,0.056-1.026,0.116H131.323c-0.582-0.09-1.185-0.125-1.806-0.104
		c-1.547,0.073-3.108,0.104-4.668,0.104c-59.108,0-107.194-48.698-107.194-108.552s48.086-108.552,107.194-108.552
		c3.56,0,7.086,0.177,10.56,0.517c4.155,0.418,7.974-2.108,9.259-6.043c16.862-51.642,65.655-86.336,121.422-86.336
		c70.229,0,127.366,55.565,127.366,123.996c0,2.423,0.996,4.741,2.759,6.409c1.759,1.672,4.134,2.573,6.547,2.405
		c1.513-0.082,3.034-0.121,4.569-0.121c47.978,0,87.013,39.539,87.013,88.138C494.345,369.293,458.121,407.957,411.875,410.366z"/>
	<path style="fill:#314E55;" d="M332.599,261.478c-3.599-3.302-9.172-3.065-12.474,0.517l-13.879,15.085
		c-0.468-0.077-0.89-0.279-1.379-0.279h-24.01c-0.307-0.862-0.635-1.701-1.027-2.519l16.964-16.964
		c0.543-0.543,0.85-1.207,1.222-1.84l19.325,0.801c0.125,0.004,0.25,0.009,0.371,0.009c4.707,0,8.621-3.716,8.815-8.461
		c0.203-4.871-3.582-8.983-8.453-9.185l-15.172-0.629l-0.629-15.172c-0.198-4.871-4.155-8.746-9.185-8.453
		c-4.871,0.203-8.655,4.315-8.453,9.185l0.849,20.484c-0.385,0.277-0.826,0.433-1.172,0.779L267.347,261.8
		c-0.818-0.392-1.657-0.72-2.519-1.027v-24.01c0-0.767-0.253-1.453-0.437-2.162l14.234-13.096c3.586-3.302,3.819-8.884,0.517-12.474
		c-3.306-3.582-8.875-3.819-12.474-0.517l-11.172,10.28l-11.172-10.28c-3.595-3.302-9.172-3.065-12.474,0.517
		c-3.302,3.591-3.069,9.172,0.517,12.474l15.085,13.879c-0.077,0.467-0.279,0.89-0.279,1.379v24.01
		c-0.862,0.307-1.701,0.635-2.519,1.027l-16.964-16.964c-0.543-0.543-1.207-0.85-1.84-1.222l0.801-19.325
		c0.203-4.871-3.582-8.983-8.453-9.185c-5.022-0.203-8.987,3.586-9.185,8.453l-0.629,15.172l-15.172,0.629
		c-4.871,0.203-8.655,4.315-8.453,9.185c0.194,4.746,4.104,8.461,8.815,8.461c0.121,0,0.246-0.004,0.371-0.009l20.484-0.849
		c0.277,0.385,0.433,0.826,0.779,1.172l16.964,16.964c-0.392,0.818-0.72,1.657-1.027,2.519h-24.01c-0.767,0-1.453,0.253-2.162,0.437
		l-13.096-14.234c-3.293-3.586-8.875-3.823-12.474-0.517c-3.586,3.302-3.819,8.884-0.517,12.474l10.28,11.172l-10.28,11.172
		c-3.302,3.591-3.069,9.172,0.517,12.474c1.698,1.56,3.84,2.332,5.974,2.332c2.384,0,4.758-0.957,6.5-2.849l13.879-15.085
		c0.468,0.077,0.89,0.279,1.379,0.279h24.011c0.307,0.862,0.635,1.701,1.026,2.519l-16.964,16.964
		c-0.543,0.543-0.85,1.207-1.222,1.84l-19.325-0.801c-5.103-0.25-8.987,3.586-9.185,8.453c-0.203,4.871,3.582,8.983,8.453,9.185
		l15.172,0.629l0.629,15.172c0.194,4.746,4.104,8.461,8.815,8.461c0.121,0,0.246-0.004,0.371-0.009
		c4.871-0.203,8.655-4.315,8.453-9.185l-0.849-20.484c0.385-0.277,0.826-0.433,1.172-0.779l16.964-16.964
		c0.818,0.392,1.657,0.719,2.519,1.026v24.011c0,0.767,0.253,1.453,0.437,2.162l-14.234,13.096
		c-3.586,3.302-3.819,8.884-0.517,12.474c3.297,3.586,8.884,3.815,12.474,0.517l11.172-10.28l11.172,10.28
		c1.698,1.56,3.84,2.332,5.974,2.332c2.384,0,4.759-0.957,6.5-2.849c3.302-3.591,3.069-9.172-0.517-12.474l-15.085-13.879
		c0.077-0.468,0.279-0.89,0.279-1.379v-24.01c0.862-0.307,1.701-0.635,2.519-1.027l16.964,16.964c0.543,0.543,1.207,0.85,1.84,1.222
		l-0.801,19.325c-0.203,4.871,3.582,8.983,8.453,9.185c0.125,0.004,0.25,0.009,0.371,0.009c4.707,0,8.621-3.716,8.815-8.461
		l0.629-15.172l15.172-0.629c4.871-0.203,8.655-4.315,8.453-9.185c-0.203-4.866-4.276-8.707-9.185-8.453l-20.484,0.849
		c-0.277-0.385-0.433-0.826-0.779-1.172l-16.964-16.964c0.392-0.818,0.72-1.657,1.027-2.519h24.01c0.767,0,1.453-0.253,2.162-0.437
		l13.096,14.234c1.741,1.892,4.116,2.849,6.5,2.849c2.134,0,4.276-0.772,5.974-2.332c3.586-3.302,3.819-8.884,0.517-12.474
		l-10.28-11.172l10.28-11.172C336.418,270.362,336.185,264.78,332.599,261.478z M247.172,285.629c0-4.866,3.961-8.828,8.828-8.828
		s8.828,3.961,8.828,8.828c0,4.866-3.961,8.828-8.828,8.828S247.172,290.496,247.172,285.629z"/>
</g>
<g>
</g>
<g>
</g>
<g>
</g>
<g>
</g>
<g>
</g>
<g>
</g>
<g>
</g>
<g>
</g>
<g>
</g>
<g>
</g>
<g>
</g>
<g>
</g>
<g>
</g>
<g>
</g>
<g>
</g>
</svg>
