<?xml version="1.0" encoding="iso-8859-1"?>
<!-- Generator: Adobe Illustrator 19.0.0, SVG Export Plug-In . SVG Version: 6.00 Build 0)  -->
<svg version="1.1" id="Layer_1" xmlns="http://www.w3.org/2000/svg" xmlns:xlink="http://www.w3.org/1999/xlink" x="0px" y="0px"
	 viewBox="0 0 512 512" style="enable-background:new 0 0 512 512;" xml:space="preserve">
<path style="fill:#81A4E3;" d="M203.034,298.931c0,32.302,25.741,58.586,57.379,58.586s57.379-26.285,57.379-58.586
	c0-24.853-36.715-77.22-57.379-103.797C239.75,221.711,203.034,274.078,203.034,298.931z M269.241,331.034
	c0,4.879-3.948,8.828-8.828,8.828c-21.905,0-39.724-17.819-39.724-39.724c0-4.879,3.948-8.828,8.828-8.828s8.828,3.948,8.828,8.828
	c0,12.172,9.897,22.069,22.069,22.069C265.293,322.207,269.241,326.155,269.241,331.034z"/>
<path style="fill:#73C9C9;" d="M407.328,234.207c-1.526,0-3.052,0.039-4.569,0.121c-2.431,0.112-4.793-0.741-6.543-2.405
	c-1.759-1.668-2.759-3.987-2.759-6.409c0-68.431-57.138-123.996-127.371-123.996c-55.759,0-104.56,34.694-121.422,86.336
	c-1.284,3.94-5.173,6.474-9.259,6.043c-3.465-0.341-6.991-0.517-10.56-0.517c-59.103,0-107.19,48.698-107.19,108.552
	s48.086,108.552,107.19,108.552c1.569,0,3.121-0.034,4.672-0.104c0.621-0.043,1.207,0,1.81,0.104h279.517
	c0.345-0.06,0.681-0.104,1.035-0.121c46.241-2.405,82.466-41.069,82.466-88.017C494.345,273.746,455.31,234.207,407.328,234.207z
	 M260.414,375.172c-41.371,0-75.034-34.198-75.034-76.241c0-39.246,61.224-115.048,68.207-123.565
	c3.362-4.086,10.293-4.086,13.655,0c6.983,8.517,68.207,84.319,68.207,123.565C335.448,340.974,301.784,375.172,260.414,375.172z"/>
<g>
	<path style="fill:#314E55;" d="M410.836,216.612c-4.655-73.97-67.802-132.75-144.75-132.75
		c-61.052,0-114.793,36.677-135.888,91.974c-1.785-0.073-3.569-0.112-5.353-0.112C56.009,175.724,0,232.341,0,301.931
		c0,69.595,56.009,126.207,124.845,126.207c1.336,0,2.664-0.017,3.991-0.06c0.345,0.043,0.698,0.06,1.052,0.06h282.483
		c0.672,0,1.336-0.078,1.974-0.233C469.233,424.233,512,378.164,512,322.345C512,265.194,466.94,218.487,410.836,216.612z
		 M411.879,410.362c-0.354,0.017-0.69,0.06-1.035,0.121H131.328c-0.603-0.104-1.19-0.147-1.81-0.104
		c-1.552,0.069-3.104,0.104-4.672,0.104c-59.103,0-107.19-48.698-107.19-108.552s48.086-108.552,107.19-108.552
		c3.569,0,7.095,0.177,10.56,0.517c4.086,0.431,7.974-2.103,9.259-6.043c16.862-51.642,65.664-86.336,121.422-86.336
		c70.233,0,127.371,55.565,127.371,123.996c0,2.423,1,4.741,2.759,6.409c1.75,1.664,4.112,2.517,6.543,2.405
		c1.517-0.082,3.043-0.121,4.569-0.121c47.983,0,87.018,39.539,87.018,88.138C494.345,369.293,458.121,407.957,411.879,410.362z"/>
	<path style="fill:#314E55;" d="M253.586,175.366c-6.983,8.517-68.207,84.319-68.207,123.565c0,42.043,33.664,76.241,75.034,76.241
		s75.034-34.198,75.034-76.241c0-39.246-61.224-115.048-68.207-123.565C263.879,171.28,256.948,171.28,253.586,175.366z
		 M260.414,357.517c-31.638,0-57.379-26.285-57.379-58.586c0-24.853,36.715-77.22,57.379-103.797
		c20.664,26.578,57.379,78.944,57.379,103.797C317.793,331.233,292.052,357.517,260.414,357.517z"/>
	<path style="fill:#314E55;" d="M238.345,300.138c0-4.879-3.948-8.828-8.828-8.828s-8.828,3.948-8.828,8.828
		c0,21.905,17.819,39.724,39.724,39.724c4.879,0,8.828-3.948,8.828-8.828c0-4.879-3.948-8.828-8.828-8.828
		C248.241,322.207,238.345,312.31,238.345,300.138z"/>
</g>
<g>
</g>
<g>
</g>
<g>
</g>
<g>
</g>
<g>
</g>
<g>
</g>
<g>
</g>
<g>
</g>
<g>
</g>
<g>
</g>
<g>
</g>
<g>
</g>
<g>
</g>
<g>
</g>
<g>
</g>
</svg>
