<?xml version="1.0" encoding="iso-8859-1"?>
<!-- Generator: Adobe Illustrator 19.0.0, SVG Export Plug-In . SVG Version: 6.00 Build 0)  -->
<svg version="1.1" id="Layer_1" xmlns="http://www.w3.org/2000/svg" xmlns:xlink="http://www.w3.org/1999/xlink" x="0px" y="0px"
	 viewBox="0 0 512 512" style="enable-background:new 0 0 512 512;" xml:space="preserve">
<path style="fill:#81A4E3;" d="M405.771,149.771c-1.511,0-3.003,0.039-4.49,0.112c-2.764,0.229-5.402-0.848-7.381-2.735
	c-1.984-1.887-3.106-4.5-3.106-7.235c0-66.193-55.989-119.944-124.809-119.944c-54.667,0-102.485,33.581-118.993,83.559
	c-1.468,4.436-5.841,7.303-10.458,6.806c-3.398-0.331-6.85-0.502-10.336-0.502c-57.807,0-104.84,47.033-104.84,104.84
	c0,57.812,47.033,104.84,104.84,104.84c1.545,0,3.086-0.039,4.612-0.098c0.614-0.058,1.253,0.01,1.872,0.098h276.477
	c0.346-0.058,0.702-0.098,1.058-0.117c45.097-2.311,80.424-39.549,80.424-84.753C490.641,187.843,452.569,149.771,405.771,149.771z"
	/>
<g>
	<path style="fill:#314E55;" d="M410.407,129.904C405.137,57.417,342.377,0,265.985,0c-60.606,0-114.005,35.834-135.306,89.94
		c-1.487-0.053-2.979-0.078-4.48-0.078c-68.82,0-124.809,55.989-124.809,124.809s55.989,124.809,124.809,124.809
		c1.302,0,2.599-0.019,3.895-0.058c0.361,0.039,0.727,0.058,1.097,0.058h279.572c0.722,0,1.433-0.078,2.121-0.234
		c54.935-3.676,97.727-49.309,97.727-104.605C510.611,178.384,466.074,132.337,410.407,129.904z M410.217,319.394
		c-0.356,0.019-0.712,0.058-1.058,0.117H132.683c-0.619-0.088-1.258-0.156-1.872-0.098c-1.526,0.059-3.067,0.098-4.612,0.098
		c-57.807,0-104.84-47.028-104.84-104.84c0-57.807,47.033-104.84,104.84-104.84c3.486,0,6.938,0.171,10.336,0.502
		c4.617,0.497,8.99-2.369,10.458-6.806c16.508-49.977,64.325-83.559,118.993-83.559c68.82,0,124.809,53.751,124.809,119.944
		c0,2.735,1.121,5.348,3.105,7.235c1.979,1.887,4.617,2.964,7.381,2.735c1.487-0.073,2.979-0.112,4.49-0.112
		c46.798,0,84.87,38.072,84.87,84.87C490.641,279.845,455.314,317.083,410.217,319.394z"/>
	<path style="fill:#314E55;" d="M208.28,363.594c-4.797-2.769-10.887-1.121-13.641,3.656l-23.041,39.91
		c-2.755,4.778-1.121,10.882,3.656,13.641c1.575,0.907,3.291,1.336,4.983,1.336c3.452,0,6.806-1.794,8.659-4.992l23.041-39.91
		C214.691,372.457,213.058,366.354,208.28,363.594z"/>
	<path style="fill:#314E55;" d="M208.28,453.457c-4.797-2.76-10.887-1.112-13.641,3.656l-23.041,39.91
		c-2.755,4.778-1.121,10.882,3.656,13.641c1.575,0.907,3.291,1.336,4.983,1.336c3.452,0,6.806-1.794,8.659-4.992l23.041-39.91
		C214.691,462.32,213.058,456.216,208.28,453.457z"/>
	<path style="fill:#314E55;" d="M268.188,363.594c-4.792-2.769-10.882-1.121-13.641,3.656l-23.041,39.91
		c-2.755,4.778-1.121,10.882,3.656,13.641c1.575,0.907,3.291,1.336,4.983,1.336c3.452,0,6.806-1.794,8.659-4.992l23.041-39.91
		C274.6,372.457,272.966,366.354,268.188,363.594z"/>
	<path style="fill:#314E55;" d="M268.188,453.457c-4.792-2.76-10.882-1.112-13.641,3.656l-23.041,39.91
		c-2.755,4.778-1.121,10.882,3.656,13.641c1.575,0.907,3.291,1.336,4.983,1.336c3.452,0,6.806-1.794,8.659-4.992l23.041-39.91
		C274.6,462.32,272.966,456.216,268.188,453.457z"/>
	<path style="fill:#314E55;" d="M328.097,363.594c-4.788-2.769-10.877-1.121-13.641,3.656l-23.041,39.91
		c-2.755,4.778-1.121,10.882,3.656,13.641c1.575,0.907,3.291,1.336,4.983,1.336c3.452,0,6.806-1.794,8.659-4.992l23.041-39.91
		C334.508,372.457,332.875,366.354,328.097,363.594z"/>
	<path style="fill:#314E55;" d="M328.097,453.457c-4.788-2.76-10.877-1.112-13.641,3.656l-23.041,39.91
		c-2.755,4.778-1.121,10.882,3.656,13.641c1.575,0.907,3.291,1.336,4.983,1.336c3.452,0,6.806-1.794,8.659-4.992l23.041-39.91
		C334.508,462.32,332.875,456.216,328.097,453.457z"/>
</g>
<g>
</g>
<g>
</g>
<g>
</g>
<g>
</g>
<g>
</g>
<g>
</g>
<g>
</g>
<g>
</g>
<g>
</g>
<g>
</g>
<g>
</g>
<g>
</g>
<g>
</g>
<g>
</g>
<g>
</g>
</svg>
