<?xml version="1.0" encoding="iso-8859-1"?>
<!-- Generator: Adobe Illustrator 19.0.0, SVG Export Plug-In . SVG Version: 6.00 Build 0)  -->
<svg version="1.1" id="Layer_1" xmlns="http://www.w3.org/2000/svg" xmlns:xlink="http://www.w3.org/1999/xlink" x="0px" y="0px"
	 viewBox="0 0 512 512" style="enable-background:new 0 0 512 512;" xml:space="preserve">
<g>
	<path style="fill:#81A4E3;" d="M351.373,456.784c0,16.608,13.51,30.118,30.118,30.118s30.118-13.51,30.118-30.118
		c0-10.794-15.755-35.441-30.118-54.186C367.127,421.353,351.373,446.01,351.373,456.784z"/>
	<path style="fill:#81A4E3;" d="M90.353,456.784c0,16.608,13.51,30.118,30.118,30.118s30.118-13.51,30.118-30.118
		c0-10.794-15.755-35.441-30.118-54.186C106.108,421.353,90.353,446.01,90.353,456.784z"/>
	<path style="fill:#81A4E3;" d="M220.863,456.784c0,16.608,13.51,30.118,30.118,30.118s30.118-13.51,30.118-30.118
		c0-10.794-15.755-35.441-30.118-54.186C236.618,421.353,220.863,446.01,220.863,456.784z"/>
</g>
<path style="fill:#73C9C9;" d="M406.588,155.608c-1.52,0-3.02,0.039-4.52,0.113c-2.706,0.196-5.422-0.853-7.421-2.75
	c-1.99-1.897-3.118-4.524-3.118-7.274c0-66.554-56.294-120.598-125.49-120.598c-54.961,0-103.049,33.765-119.647,84.015
	c-1.47,4.47-5.892,7.319-10.51,6.843c-3.422-0.333-6.892-0.505-10.392-0.505c-58.128,0-105.412,47.289-105.412,105.412
	c0,58.128,47.284,105.412,105.412,105.412c1.559,0,3.098-0.039,4.637-0.098c0.627-0.059,1.274,0.01,1.882,0.098h277.98
	c0.353-0.059,0.706-0.098,1.059-0.118c45.353-2.324,80.872-39.755,80.872-85.216C491.922,193.887,453.637,155.608,406.588,155.608z"
	/>
<g>
	<path style="fill:#314E55;" d="M411.245,135.632C405.951,62.75,342.843,5.02,266.039,5.02c-60.931,0-114.628,36.029-136.049,90.431
		c-1.49-0.054-2.99-0.078-4.5-0.078C56.294,95.373,0,151.667,0,220.863s56.294,125.49,125.49,125.49c1.314,0,2.618-0.02,3.912-0.059
		c0.363,0.039,0.735,0.059,1.108,0.059h281.098c0.726,0,1.441-0.078,2.137-0.235C468.98,342.422,512,296.539,512,240.941
		C512,184.377,467.216,138.078,411.245,135.632z M411.049,326.157c-0.353,0.02-0.706,0.059-1.059,0.118H132.01
		c-0.608-0.088-1.255-0.157-1.882-0.098c-1.539,0.059-3.079,0.098-4.637,0.098c-58.128,0-105.412-47.284-105.412-105.412
		c0-58.123,47.284-105.412,105.412-105.412c3.5,0,6.97,0.172,10.392,0.505c4.618,0.476,9.039-2.373,10.51-6.843
		c16.598-50.25,64.686-84.015,119.647-84.015c69.196,0,125.49,54.044,125.49,120.598c0,2.75,1.127,5.378,3.118,7.274
		c2,1.897,4.716,2.946,7.421,2.75c1.5-0.074,3-0.113,4.52-0.113c47.049,0,85.333,38.28,85.333,85.333
		C491.922,286.402,456.402,323.833,411.049,326.157z"/>
	<path style="fill:#314E55;" d="M112.765,380.078c-7.098,8.5-42.49,52.137-42.49,76.706c0,27.676,22.52,50.196,50.196,50.196
		s50.196-22.52,50.196-50.196c0-24.569-35.392-68.206-42.49-76.706C124.353,375.51,116.588,375.51,112.765,380.078z
		 M120.471,486.902c-16.608,0-30.118-13.51-30.118-30.118c0-10.775,15.755-35.431,30.118-54.186
		c14.363,18.745,30.118,43.392,30.118,54.186C150.588,473.392,137.078,486.902,120.471,486.902z"/>
	<path style="fill:#314E55;" d="M243.275,380.078c-7.098,8.5-42.49,52.137-42.49,76.706c0,27.676,22.52,50.196,50.196,50.196
		s50.196-22.52,50.196-50.196c0-24.569-35.392-68.206-42.49-76.706C254.863,375.51,247.098,375.51,243.275,380.078z M250.98,486.902
		c-16.608,0-30.118-13.51-30.118-30.118c0-10.775,15.755-35.431,30.118-54.186c14.363,18.745,30.118,43.392,30.118,54.186
		C281.098,473.392,267.588,486.902,250.98,486.902z"/>
	<path style="fill:#314E55;" d="M373.784,380.078c-7.098,8.5-42.49,52.137-42.49,76.706c0,27.676,22.52,50.196,50.196,50.196
		s50.196-22.52,50.196-50.196c0-24.569-35.392-68.206-42.49-76.706C385.373,375.51,377.608,375.51,373.784,380.078z M381.49,486.902
		c-16.608,0-30.118-13.51-30.118-30.118c0-10.775,15.755-35.431,30.118-54.186c14.363,18.745,30.118,43.392,30.118,54.186
		C411.608,473.392,398.098,486.902,381.49,486.902z"/>
</g>
<g>
</g>
<g>
</g>
<g>
</g>
<g>
</g>
<g>
</g>
<g>
</g>
<g>
</g>
<g>
</g>
<g>
</g>
<g>
</g>
<g>
</g>
<g>
</g>
<g>
</g>
<g>
</g>
<g>
</g>
</svg>
