<?xml version="1.0" encoding="iso-8859-1"?>
<!-- Generator: Adobe Illustrator 19.0.0, SVG Export Plug-In . SVG Version: 6.00 Build 0)  -->
<svg version="1.1" id="Layer_1" xmlns="http://www.w3.org/2000/svg" xmlns:xlink="http://www.w3.org/1999/xlink" x="0px" y="0px"
	 viewBox="0 0 512 512" style="enable-background:new 0 0 512 512;" xml:space="preserve">
<path style="fill:#E4AD40;" d="M237.98,240.145V54.75L129.786,327.232h152.66c4.855,0,8.791,3.932,8.791,8.791v124.346
	l90.594-211.433H246.771C241.916,248.936,237.98,245.004,237.98,240.145z"/>
<path style="fill:#314E55;" d="M402.504,235.303c-1.627-2.464-4.387-3.949-7.34-3.949H255.562V8.785
	c0-4.215-2.996-7.838-7.139-8.637c-4.125-0.764-8.263,1.477-9.821,5.391L108.667,332.778c-1.077,2.704-0.743,5.769,0.897,8.182
	c1.635,2.413,4.357,3.855,7.272,3.855h156.819v158.395c0,4.172,2.936,7.77,7.023,8.611c0.592,0.12,1.185,0.18,1.773,0.18
	c3.456,0,6.671-2.052,8.074-5.331l112.718-263.064C404.41,240.892,404.131,237.775,402.504,235.303z M291.237,460.369V336.023
	c0-4.859-3.936-8.791-8.791-8.791h-152.66L237.98,54.75v185.395c0,4.859,3.936,8.791,8.791,8.791h135.061L291.237,460.369z"/>
<g>
</g>
<g>
</g>
<g>
</g>
<g>
</g>
<g>
</g>
<g>
</g>
<g>
</g>
<g>
</g>
<g>
</g>
<g>
</g>
<g>
</g>
<g>
</g>
<g>
</g>
<g>
</g>
<g>
</g>
</svg>
